<svg width="24" height="24" viewBox="0 0 24 24" fill="none" xmlns="http://www.w3.org/2000/svg">
<path d="M12.8858 8.76081C12.8693 8.74755 12.8531 8.73474 12.8372 8.72237V16.4651C12.8372 16.9275 12.4624 17.3023 12 17.3023C11.5376 17.3023 11.1628 16.9275 11.1628 16.4651V8.72237C11.1469 8.73474 11.1307 8.74755 11.1142 8.76081C10.7541 9.05004 10.326 9.48021 9.6899 10.122L8.12952 11.6963C7.80403 12.0247 7.27394 12.0271 6.94553 11.7016C6.61713 11.3761 6.61476 10.846 6.94025 10.5176L8.53468 8.90891C9.12786 8.31038 9.62258 7.8112 10.0658 7.45528C10.5306 7.08197 11.0191 6.79802 11.6143 6.72216C11.8704 6.68951 12.1296 6.68951 12.3857 6.72216C12.9809 6.79802 13.4694 7.08197 13.9342 7.45529C14.3774 7.81119 14.8721 8.31036 15.4653 8.90886L17.0597 10.5176C17.3852 10.846 17.3829 11.3761 17.0545 11.7016C16.7261 12.0271 16.196 12.0247 15.8705 11.6963L14.3101 10.122C13.6741 9.48021 13.2459 9.05004 12.8858 8.76081Z" fill="white"/>
<path fill-rule="evenodd" clip-rule="evenodd" d="M12 0C5.37258 0 0 5.37258 0 12C0 18.6274 5.37258 24 12 24C18.6274 24 24 18.6274 24 12C24 5.37258 18.6274 0 12 0ZM1.67442 12C1.67442 6.29734 6.29734 1.67442 12 1.67442C17.7027 1.67442 22.3256 6.29734 22.3256 12C22.3256 17.7027 17.7027 22.3256 12 22.3256C6.29734 22.3256 1.67442 17.7027 1.67442 12Z" fill="white"/>
</svg>
