<svg width="24" height="24" viewBox="0 0 24 24" fill="none" xmlns="http://www.w3.org/2000/svg">
<path fill-rule="evenodd" clip-rule="evenodd" d="M10.7692 4.92308C8.89996 4.92308 7.38462 6.43842 7.38462 8.30769C7.38462 10.177 8.89996 11.6923 10.7692 11.6923C12.6385 11.6923 14.1538 10.177 14.1538 8.30769C14.1538 6.43842 12.6385 4.92308 10.7692 4.92308ZM9.23077 8.30769C9.23077 7.45802 9.91956 6.76923 10.7692 6.76923C11.6189 6.76923 12.3077 7.45802 12.3077 8.30769C12.3077 9.15736 11.6189 9.84615 10.7692 9.84615C9.91956 9.84615 9.23077 9.15736 9.23077 8.30769Z" fill="#2D264B"/>
<path fill-rule="evenodd" clip-rule="evenodd" d="M17.4936 0.152281C16.0879 -1.78814e-05 14.316 -9.88738e-06 12.0557 1.62876e-07H11.9443C9.68396 -9.88738e-06 7.91214 -1.78814e-05 6.50643 0.152281C5.07192 0.3077 3.90961 0.630553 2.91721 1.35157C2.31642 1.78807 1.78807 2.31642 1.35157 2.91721C0.630553 3.90961 0.3077 5.07192 0.152281 6.50643C-1.78814e-05 7.91214 -9.88738e-06 9.68396 1.62876e-07 11.9443V12.0557C-9.88738e-06 14.316 -1.78814e-05 16.0879 0.152281 17.4936C0.3077 18.9281 0.630553 20.0904 1.35157 21.0828C1.36741 21.1046 1.38337 21.1263 1.39946 21.1479C1.82652 21.7218 2.33822 22.2278 2.91721 22.6484C3.90961 23.3694 5.07193 23.6923 6.50643 23.8477C7.91211 24 9.6839 24 11.9442 24H12.0557C14.316 24 16.0879 24 17.4936 23.8477C18.9281 23.6923 20.0904 23.3694 21.0828 22.6484C21.6836 22.2119 22.2119 21.6836 22.6484 21.0828C23.7191 19.6092 23.9265 17.7288 23.9813 15.0776C24 14.1763 24 13.1573 24 12.0074V11.9443C24 9.68399 24 7.91211 23.8477 6.50643C23.6923 5.07193 23.3694 3.90961 22.6484 2.91721C22.2119 2.31642 21.6836 1.78807 21.0828 1.35157C20.0904 0.630553 18.9281 0.3077 17.4936 0.152281ZM4.00235 2.84514C4.62759 2.39088 5.42786 2.12609 6.70529 1.98769C7.99999 1.84742 9.67191 1.84615 12 1.84615C14.3281 1.84615 16 1.84742 17.2947 1.98769C18.5721 2.12609 19.3724 2.39088 19.9976 2.84514C20.4417 3.16777 20.8322 3.55829 21.1549 4.00235C21.6091 4.62759 21.8739 5.42786 22.0123 6.70529C22.1526 7.99999 22.1538 9.67191 22.1538 12C22.1538 12.3138 22.1538 12.6161 22.1535 12.9075C22.0232 12.797 21.8997 12.6999 21.7782 12.6137C18.7369 10.4543 14.5416 11.0261 12.1892 13.9207C11.994 14.1609 11.807 14.4423 11.5952 14.7931L11.4415 14.7623C10.0887 14.4916 9.26035 14.3258 8.48266 14.3424C6.40454 14.3865 4.4509 15.342 3.14022 16.9553C2.8074 17.3649 2.5265 17.8445 2.18758 18.4961C2.10286 18.1474 2.03719 17.7516 1.98769 17.2947C1.84742 16 1.84615 14.3281 1.84615 12C1.84615 9.67191 1.84742 7.99999 1.98769 6.70529C2.12609 5.42786 2.39088 4.62759 2.84514 4.00235C3.16777 3.55829 3.55829 3.16777 4.00235 2.84514ZM20.7094 14.119C21.0141 14.3353 21.3666 14.6742 22.1259 15.4316C22.0555 17.8571 21.8116 19.0937 21.1549 19.9976C20.8322 20.4417 20.4417 20.8322 19.9976 21.1549C19.3724 21.6091 18.5721 21.8739 17.2947 22.0123C16 22.1526 14.3281 22.1538 12 22.1538C11.087 22.1538 10.2749 22.1537 9.54695 22.145L12.4008 17.0959C12.5607 16.8129 12.6997 16.5671 12.8237 16.3501C13.2169 15.6625 13.4295 15.3218 13.6219 15.0851C15.3606 12.9456 18.4615 12.5229 20.7094 14.119ZM7.5041 22.0073C7.49114 22.0303 7.47926 22.0535 7.46846 22.077C7.19983 22.0597 6.94604 22.0384 6.70529 22.0123C5.42786 21.8739 4.62759 21.6091 4.00235 21.1549C3.73015 20.9571 3.47807 20.7338 3.2494 20.4883C3.94082 19.1055 4.22667 18.5458 4.5731 18.1194C5.54186 16.9269 6.98585 16.2207 8.52186 16.1881C8.99555 16.178 9.51919 16.2643 10.6267 16.4827L7.5041 22.0073Z" fill="#2D264B"/>
</svg>
