<svg width="24" height="24" viewBox="0 0 24 24" fill="none" xmlns="http://www.w3.org/2000/svg">
<path fill-rule="evenodd" clip-rule="evenodd" d="M13.1655 9.06323C12.6114 8.72224 12.159 8.44382 11.786 8.26046C11.4112 8.0762 11.021 7.93723 10.6102 7.98325C10.0165 8.04976 9.48941 8.38035 9.15242 8.87478C8.92371 9.21033 8.84366 9.61761 8.80638 10.0507C8.76922 10.4825 8.76922 11.0359 8.76923 11.7214V11.7786C8.76922 12.464 8.76922 13.0175 8.80638 13.4493C8.84366 13.8824 8.92371 14.2897 9.15242 14.6252C9.48941 15.1197 10.0165 15.4502 10.6102 15.5168C11.021 15.5628 11.4112 15.4238 11.786 15.2395C12.159 15.0562 12.6114 14.7778 13.1655 14.4368L13.2179 14.4045C13.7725 14.0632 14.2248 13.7849 14.5598 13.5326C14.8999 13.2764 15.1947 12.9936 15.353 12.6146C15.5832 12.0635 15.5832 11.4365 15.353 10.8854C15.1947 10.5064 14.8999 10.2236 14.5598 9.96742C14.2248 9.71514 13.7725 9.43683 13.218 9.09553L13.1655 9.06323ZM10.7429 9.16814C10.8053 9.16115 10.9399 9.17311 11.26 9.33046C11.576 9.48579 11.98 9.73369 12.5671 10.095C13.1539 10.4561 13.5577 10.7054 13.8425 10.9198C14.1274 11.1344 14.2176 11.2606 14.2528 11.3449C14.3602 11.602 14.3602 11.898 14.2528 12.1551C14.2176 12.2394 14.1274 12.3656 13.8425 12.5802C13.5577 12.7946 13.1539 13.0439 12.5671 13.405C11.98 13.7663 11.576 14.0142 11.26 14.1695C10.9399 14.3269 10.8053 14.3388 10.7429 14.3319C10.5112 14.3059 10.2885 14.175 10.1376 13.9537C10.0867 13.879 10.0269 13.7262 9.9943 13.3471C9.96207 12.9725 9.96154 12.4708 9.96154 11.75C9.96154 11.0292 9.96207 10.5275 9.9943 10.1529C10.0269 9.77375 10.0867 9.62102 10.1376 9.54629C10.2885 9.32499 10.5112 9.1941 10.7429 9.16814Z" fill="black"/>
<path fill-rule="evenodd" clip-rule="evenodd" d="M15.2979 4.09835C14.3901 3.99999 13.2458 3.99999 11.786 4H11.714C10.2542 3.99999 9.10992 3.99999 8.20207 4.09835C7.27562 4.19872 6.52496 4.40723 5.88403 4.87289C5.49602 5.1548 5.1548 5.49602 4.87289 5.88403C4.40723 6.52496 4.19872 7.27562 4.09835 8.20207C3.99999 9.10992 3.99999 10.2542 4 11.714V11.786C3.99999 13.2458 3.99999 14.3901 4.09835 15.2979C4.19872 16.2244 4.40723 16.975 4.87289 17.616C5.1548 18.004 5.49602 18.3452 5.88403 18.6271C6.52496 19.0928 7.27562 19.3013 8.20207 19.4017C9.10991 19.5 10.2542 19.5 11.714 19.5H11.786C13.2458 19.5 14.3901 19.5 15.2979 19.4017C16.2244 19.3013 16.975 19.0928 17.616 18.6271C18.004 18.3452 18.3452 18.004 18.6271 17.616C19.0928 16.975 19.3013 16.2244 19.4017 15.2979C19.5 14.3901 19.5 13.2458 19.5 11.786V11.714C19.5 10.2542 19.5 9.10991 19.4017 8.20207C19.3013 7.27562 19.0928 6.52496 18.6271 5.88403C18.3452 5.49602 18.004 5.1548 17.616 4.87289C16.975 4.40723 16.2244 4.19872 15.2979 4.09835ZM6.58485 5.83749C6.98865 5.54411 7.50549 5.3731 8.3305 5.28372C9.16666 5.19313 10.2464 5.19231 11.75 5.19231C13.2536 5.19231 14.3333 5.19313 15.1695 5.28372C15.9945 5.3731 16.5113 5.54411 16.9151 5.83749C17.2019 6.04585 17.4541 6.29806 17.6625 6.58485C17.9559 6.98865 18.1269 7.50549 18.2163 8.3305C18.3069 9.16666 18.3077 10.2464 18.3077 11.75C18.3077 13.2536 18.3069 14.3333 18.2163 15.1695C18.1269 15.9945 17.9559 16.5113 17.6625 16.9151C17.4541 17.2019 17.2019 17.4541 16.9151 17.6625C16.5113 17.9559 15.9945 18.1269 15.1695 18.2163C14.3333 18.3069 13.2536 18.3077 11.75 18.3077C10.2464 18.3077 9.16666 18.3069 8.3305 18.2163C7.50549 18.1269 6.98865 17.9559 6.58485 17.6625C6.29806 17.4541 6.04585 17.2019 5.83749 16.9151C5.54411 16.5113 5.3731 15.9945 5.28372 15.1695C5.19313 14.3333 5.19231 13.2536 5.19231 11.75C5.19231 10.2464 5.19313 9.16666 5.28372 8.3305C5.3731 7.50549 5.54411 6.98865 5.83749 6.58485C6.04585 6.29806 6.29806 6.04585 6.58485 5.83749Z" fill="black"/>
<path d="M20.4167 17.1986C20.4167 17.6986 20.2767 18.172 20.03 18.572C19.89 18.812 19.71 19.0253 19.5034 19.1986C19.0367 19.6186 18.4234 19.8653 17.75 19.8653C16.7767 19.8653 15.93 19.3453 15.47 18.572C15.2234 18.172 15.0834 17.6986 15.0834 17.1986C15.0834 16.3586 15.47 15.6053 16.0834 15.1187C16.5434 14.752 17.1234 14.532 17.75 14.532C19.2234 14.532 20.4167 15.7253 20.4167 17.1986Z" fill="#E5E5E5" stroke="black" stroke-miterlimit="10" stroke-linecap="round" stroke-linejoin="round"/>
<path d="M18.7434 17.1853H16.7567" stroke="black" stroke-miterlimit="10" stroke-linecap="round" stroke-linejoin="round"/>
<path d="M17.75 16.2119V18.2052" stroke="black" stroke-miterlimit="10" stroke-linecap="round" stroke-linejoin="round"/>
</svg>
