<svg width="30" height="30" viewBox="0 0 30 30" fill="none" xmlns="http://www.w3.org/2000/svg">
<path fill-rule="evenodd" clip-rule="evenodd" d="M14.6591 10.2273C11.0818 10.2273 8.18182 13.1272 8.18182 16.7045C8.18182 20.2818 11.0818 23.1818 14.6591 23.1818C18.2364 23.1818 21.1364 20.2818 21.1364 16.7045C21.1364 13.1272 18.2364 10.2273 14.6591 10.2273ZM10.2273 16.7045C10.2273 14.2569 12.2115 12.2727 14.6591 12.2727C17.1067 12.2727 19.0909 14.2569 19.0909 16.7045C19.0909 19.1522 17.1067 21.1364 14.6591 21.1364C12.2115 21.1364 10.2273 19.1522 10.2273 16.7045Z" fill="black"/>
<path fill-rule="evenodd" clip-rule="evenodd" d="M10.9091 0C9.0263 0 7.5 1.5263 7.5 3.40909V3.6526C7.5 4.27123 6.9985 4.77273 6.37987 4.77273C2.85637 4.77273 1.37837e-07 7.62909 1.37837e-07 11.1526V17.44C-8.39646e-06 19.6265 -1.51382e-05 21.3405 0.130183 22.7099C0.262892 24.1056 0.538049 25.2485 1.15544 26.256C1.80196 27.311 2.68901 28.198 3.74405 28.8446C4.75153 29.462 5.8944 29.7371 7.29015 29.8698C8.65947 30 10.3735 30 12.5599 30H16.7582C18.9446 30 20.6587 30 22.028 29.8698C23.4238 29.7371 24.5667 29.462 25.5741 28.8446C26.6292 28.198 27.5162 27.311 28.1627 26.256C28.7801 25.2485 29.0553 24.1056 29.188 22.7099C29.3182 21.3405 29.3182 19.6265 29.3182 17.4401V11.1526C29.3182 7.62909 26.4618 4.77273 22.9383 4.77273C22.3197 4.77273 21.8182 4.27123 21.8182 3.6526V3.40909C21.8182 1.5263 20.2919 0 18.4091 0H10.9091ZM9.54545 3.40909C9.54545 2.65598 10.156 2.04545 10.9091 2.04545H18.4091C19.1622 2.04545 19.7727 2.65598 19.7727 3.40909V3.6526C19.7727 5.4009 21.19 6.81818 22.9383 6.81818C25.3321 6.81818 27.2727 8.75877 27.2727 11.1526V17.3864C27.2727 19.6381 27.2716 21.255 27.1517 22.5162C27.0333 23.7623 26.8061 24.5551 26.4187 25.1872C25.9408 25.967 25.2852 26.6227 24.5054 27.1005C23.8733 27.4879 23.0805 27.7151 21.8344 27.8335C20.5732 27.9535 18.9562 27.9545 16.7045 27.9545H12.6136C10.3619 27.9545 8.745 27.9535 7.48376 27.8335C6.23773 27.7151 5.44487 27.4879 4.81279 27.1005C4.03298 26.6227 3.37734 25.967 2.89947 25.1872C2.51213 24.5551 2.28493 23.7623 2.16645 22.5162C2.04653 21.255 2.04545 19.6381 2.04545 17.3864V11.1526C2.04545 8.75877 3.98604 6.81818 6.37987 6.81818C8.12817 6.81818 9.54545 5.4009 9.54545 3.6526V3.40909Z" fill="black"/>
<path d="M21.4773 11.25C21.4773 12.0031 22.0878 12.6136 22.8409 12.6136C23.594 12.6136 24.2045 12.0031 24.2045 11.25C24.2045 10.4969 23.594 9.88636 22.8409 9.88636C22.0878 9.88636 21.4773 10.4969 21.4773 11.25Z" fill="black"/>
</svg>
