<svg width="28" height="28" viewBox="0 0 28 28" fill="none" xmlns="http://www.w3.org/2000/svg">
<path d="M16.3335 18.6666C16.3335 20.7316 15.4352 22.5983 14.0002 23.87C12.7635 24.99 11.1302 25.6666 9.3335 25.6666C5.47183 25.6666 2.3335 22.5283 2.3335 18.6666C2.3335 15.4466 4.52683 12.7166 7.49016 11.9116C8.29516 13.9416 10.0218 15.505 12.1568 16.0883C12.7402 16.2516 13.3585 16.3333 14.0002 16.3333C14.6418 16.3333 15.2602 16.2516 15.8435 16.0883C16.1585 16.8816 16.3335 17.7566 16.3335 18.6666Z" stroke="white" stroke-width="1.5" stroke-linecap="round" stroke-linejoin="round"/>
<path d="M21 9.3335C21 10.2435 20.825 11.1185 20.51 11.9118C19.705 13.9418 17.9783 15.5052 15.8433 16.0885C15.26 16.2518 14.6417 16.3335 14 16.3335C13.3583 16.3335 12.74 16.2518 12.1567 16.0885C10.0217 15.5052 8.295 13.9418 7.49 11.9118C7.175 11.1185 7 10.2435 7 9.3335C7 5.47183 10.1383 2.3335 14 2.3335C17.8617 2.3335 21 5.47183 21 9.3335Z" stroke="white" stroke-width="1.5" stroke-linecap="round" stroke-linejoin="round"/>
<path d="M25.6667 18.6666C25.6667 22.5283 22.5283 25.6666 18.6667 25.6666C16.87 25.6666 15.2367 24.99 14 23.87C15.435 22.5983 16.3333 20.7316 16.3333 18.6666C16.3333 17.7566 16.1583 16.8816 15.8433 16.0883C17.9783 15.505 19.705 13.9416 20.51 11.9116C23.4733 12.7166 25.6667 15.4466 25.6667 18.6666Z" stroke="white" stroke-width="1.5" stroke-linecap="round" stroke-linejoin="round"/>
</svg>
