<svg width="32" height="33" viewBox="0 0 32 33" fill="none" xmlns="http://www.w3.org/2000/svg">
<path fill-rule="evenodd" clip-rule="evenodd" d="M1.77232 22.2864C-2.09391 16.0301 1.0488 8.3217 4.68378 4.68672C10.9327 -1.56224 21.0643 -1.56224 27.3133 4.68672C33.5622 10.9357 33.5622 21.0673 27.3133 27.3162C23.5235 31.106 15.9555 34.1084 9.71285 30.2289C9.36714 30.014 9.19426 29.9066 9.06233 29.8541C8.81085 29.7539 8.61776 29.7245 8.34787 29.7452C8.2063 29.756 8.04636 29.7975 7.72655 29.8804C5.71389 30.4021 4.7074 30.6629 3.98241 30.5154C2.7241 30.2593 1.7407 29.2759 1.48462 28.0176C1.33707 27.2926 1.5979 26.2863 2.11956 24.2736C2.20246 23.9538 2.24392 23.7938 2.25483 23.6527C2.27568 23.3828 2.24684 23.1919 2.14718 22.9403C2.09506 22.8086 1.98748 22.6346 1.77232 22.2864ZM22.6265 11.3737C23.2893 11.3737 23.8266 11.911 23.8266 12.5738C23.8266 13.2366 23.2893 13.7739 22.6265 13.7739H9.82531C9.16251 13.7739 8.6252 13.2366 8.6252 12.5738C8.6252 11.911 9.16251 11.3737 9.82531 11.3737H22.6265ZM22.6265 17.7742C23.2893 17.7742 23.8266 18.3115 23.8266 18.9743C23.8266 19.6372 23.2893 20.1745 22.6265 20.1745H9.82531C9.16251 20.1745 8.6252 19.6372 8.6252 18.9743C8.6252 18.3115 9.16251 17.7742 9.82531 17.7742H22.6265Z" fill="white"/>
</svg>
