<svg width="43" height="42" viewBox="0 0 43 42" fill="none" xmlns="http://www.w3.org/2000/svg">
<path d="M1.22883 31V38H3.77883C4.35883 38 4.88883 37.9 5.34883 37.7C5.80883 37.5 6.17883 37.22 6.45883 36.88C6.73883 36.54 6.94883 36.16 7.08883 35.74C7.22883 35.32 7.29883 34.88 7.29883 34.42C7.29883 33.98 7.21883 33.56 7.07883 33.16C6.92883 32.76 6.71883 32.39 6.43883 32.06C6.15883 31.74 5.78883 31.48 5.32883 31.28C4.86883 31.09 4.34883 30.99 3.77883 30.99H1.22883V31ZM3.77883 37.13H2.09883V31.83H3.77883C4.61883 31.83 5.27883 32.09 5.73883 32.59C6.19883 33.1 6.42883 33.71 6.42883 34.41C6.42883 35.15 6.19883 35.79 5.74883 36.33C5.29883 36.87 4.63883 37.13 3.77883 37.13ZM12.33 38H13.09V33.06H12.27V35.71C12.27 36.17 12.12 36.55 11.84 36.85C11.56 37.16 11.19 37.32 10.75 37.32C10.28 37.32 9.91 37.19 9.65 36.91C9.38 36.64 9.25 36.26 9.25 35.78V33.06H8.43V35.79C8.43 36.5 8.62 37.06 9.02 37.47C9.42 37.88 9.94 38.08 10.58 38.08C11.3 38.07 11.88 37.78 12.3 37.21L12.34 38H12.33ZM15.3538 33.06H14.5938V38H15.4138V35.25C15.4138 34.81 15.5538 34.46 15.8338 34.19C16.1138 33.92 16.4538 33.78 16.8638 33.77C17.1738 33.77 17.4638 33.86 17.7238 34.04L18.0938 33.34C17.7538 33.08 17.3738 32.96 16.9438 32.97C16.2238 32.97 15.7138 33.25 15.4238 33.79L15.3638 33.05L15.3538 33.06ZM22.7948 38H23.5848V33.06H22.7848L22.7748 33.96C22.5948 33.65 22.3448 33.41 22.0148 33.24C21.6748 33.07 21.3248 32.98 20.9448 32.98C20.2148 32.98 19.6048 33.21 19.1248 33.67C18.6448 34.13 18.4048 34.75 18.4048 35.53C18.4048 36.32 18.6448 36.95 19.1248 37.42C19.6048 37.89 20.2048 38.12 20.9348 38.12C21.2948 38.12 21.6348 38.04 21.9748 37.87C22.3048 37.7 22.5648 37.45 22.7548 37.12L22.7748 38.02L22.7948 38ZM20.9848 33.75C21.3048 33.75 21.5948 33.82 21.8548 33.95C22.1048 34.09 22.2948 34.26 22.4348 34.47C22.5648 34.69 22.6648 34.92 22.7248 35.18C22.7848 35.44 22.7848 35.69 22.7248 35.95C22.6648 36.21 22.5648 36.44 22.4348 36.65C22.2948 36.87 22.1048 37.04 21.8448 37.17C21.5848 37.31 21.2948 37.37 20.9748 37.37C20.4748 37.37 20.0548 37.21 19.7148 36.87C19.3748 36.54 19.2048 36.1 19.2048 35.56C19.2048 35.02 19.3748 34.59 19.7148 34.26C20.0548 33.93 20.4748 33.76 20.9748 33.76L20.9848 33.75ZM26.472 31.62L25.652 31.71V33.07H24.662V33.77H25.652V36.38C25.652 37.53 26.172 38.09 27.212 38.07C27.512 38.07 27.832 37.99 28.172 37.83L27.932 37.15C27.692 37.27 27.462 37.33 27.242 37.33C26.722 37.33 26.462 37.02 26.462 36.38V33.77H28.002V33.07H26.472V31.62ZM28.9366 31.55C28.9366 31.78 29.0266 31.94 29.2066 32.03C29.3866 32.13 29.5666 32.13 29.7466 32.04C29.9266 31.95 30.0166 31.79 30.0166 31.56C30.0166 31.34 29.9266 31.18 29.7466 31.08C29.5666 30.99 29.3866 30.99 29.2066 31.08C29.0266 31.17 28.9366 31.33 28.9366 31.55ZM29.0566 33.04H29.8766V38H29.0566V33.04ZM31.0609 35.54C31.0609 36.29 31.3009 36.9 31.7809 37.38C32.2609 37.86 32.8809 38.09 33.6209 38.09C34.3609 38.09 34.9809 37.86 35.4609 37.38C35.9409 36.9 36.1909 36.29 36.1909 35.54C36.1909 34.78 35.9509 34.15 35.4709 33.67C34.9909 33.19 34.3709 32.95 33.6209 32.95C32.8809 32.95 32.2609 33.2 31.7809 33.68C31.3009 34.16 31.0609 34.78 31.0609 35.54ZM35.3809 35.54C35.3709 36.06 35.2009 36.49 34.8709 36.82C34.5409 37.16 34.1209 37.32 33.6209 37.32C33.1109 37.32 32.6909 37.16 32.3709 36.82C32.0409 36.49 31.8809 36.06 31.8809 35.54C31.8809 35 32.0409 34.55 32.3709 34.21C32.7009 33.87 33.1209 33.7 33.6309 33.7C34.1309 33.7 34.5409 33.88 34.8809 34.22C35.2109 34.56 35.3809 35 35.3809 35.54ZM37.3672 33.06V38H38.1772V35.35C38.1772 34.9 38.3172 34.52 38.5972 34.21C38.8772 33.91 39.2472 33.75 39.6972 33.74C40.1572 33.74 40.5272 33.88 40.7972 34.15C41.0572 34.43 41.1972 34.8 41.1972 35.28V38H42.0172V35.27C42.0172 34.57 41.8072 34.01 41.4072 33.6C41.0072 33.19 40.4872 32.98 39.8472 32.98C39.1372 32.98 38.5772 33.27 38.1572 33.84L38.1172 33.05H37.3672V33.06Z" fill="white"/>
<path d="M22.285 20.4201H14.9117C11.225 20.4201 10 18.3201 10 16.2101V7.79008C10 4.63008 11.225 3.58008 14.9117 3.58008H22.285C25.9717 3.58008 27.1967 4.63008 27.1967 7.79008V16.2101C27.1967 19.3701 25.96 20.4201 22.285 20.4201Z" stroke="white" stroke-width="1.5" stroke-linecap="round" stroke-linejoin="round"/>
<path d="M18.5109 11.87C19.1009 11.87 19.5209 11.98 19.7809 12.19C20.0409 12.4 20.1709 12.65 20.1709 12.95C20.1709 13.31 20.0009 13.59 19.6609 13.79C19.3209 13.99 18.9209 14.09 18.4609 14.09C18.2809 14.09 18.0909 14.08 17.9109 14.04C17.7309 14.01 17.5409 13.96 17.3609 13.88C17.1809 13.8 17.0309 13.69 16.9209 13.54C16.8009 13.4 16.7509 13.22 16.7509 13.02H15.6209C15.6209 13.52 15.7709 13.93 16.0709 14.25C16.3709 14.58 16.7309 14.8 17.1309 14.92C17.5309 15.04 17.9709 15.1 18.4509 15.1C18.9609 15.1 19.4309 15.04 19.8509 14.9C20.2709 14.76 20.6209 14.53 20.9109 14.19C21.1909 13.85 21.3409 13.44 21.3409 12.94C21.3409 12.57 21.2309 12.25 21.0209 11.98C20.8009 11.72 20.4909 11.53 20.0909 11.41C20.4109 11.33 20.6809 11.15 20.8809 10.88C21.0809 10.61 21.1809 10.3 21.1809 9.96C21.1709 9.31 20.9009 8.8 20.3809 8.44C19.8609 8.08 19.2209 7.9 18.4809 7.9C18.2109 7.9 17.9509 7.92 17.7109 7.96C17.4609 8 17.2109 8.07 16.9709 8.17C16.7309 8.27 16.5209 8.4 16.3409 8.55C16.1609 8.7 16.0109 8.89 15.9009 9.12C15.7909 9.36 15.7409 9.62 15.7409 9.9H16.8509C16.8509 9.66 16.9409 9.46 17.1209 9.3C17.3009 9.14 17.5109 9.04 17.7409 8.98C17.9609 8.93 18.2109 8.9 18.4709 8.9C19.0109 8.9 19.4209 9.01 19.6809 9.22C19.9409 9.44 20.0709 9.68 20.0709 9.96C20.0609 10.28 19.9009 10.52 19.6009 10.69C19.2909 10.87 18.9009 10.95 18.4409 10.95H17.4009V11.87H18.5109Z" fill="white"/>
<path d="M30.7736 17.0999L27.5303 15.1499V8.83989L30.7736 6.88989C32.3603 5.93989 33.6669 6.51989 33.6669 8.18989V15.8099C33.6669 17.4799 32.3603 18.0599 30.7736 17.0999Z" stroke="white" stroke-width="1.5" stroke-linecap="round" stroke-linejoin="round"/>
</svg>
