<svg width="28" height="46" viewBox="0 0 28 46" fill="none" xmlns="http://www.w3.org/2000/svg">
<path d="M16.3335 18.6666C16.3335 20.7316 15.4352 22.5983 14.0002 23.87C12.7635 24.99 11.1302 25.6666 9.3335 25.6666C5.47183 25.6666 2.3335 22.5283 2.3335 18.6666C2.3335 15.4466 4.52683 12.7166 7.49016 11.9116C8.29516 13.9416 10.0218 15.505 12.1568 16.0883C12.7402 16.2516 13.3585 16.3333 14.0002 16.3333C14.6418 16.3333 15.2602 16.2516 15.8435 16.0883C16.1585 16.8816 16.3335 17.7566 16.3335 18.6666Z" stroke="white" stroke-width="1.5" stroke-linecap="round" stroke-linejoin="round"/>
<path d="M21 9.3335C21 10.2435 20.825 11.1185 20.51 11.9118C19.705 13.9418 17.9783 15.5052 15.8433 16.0885C15.26 16.2518 14.6417 16.3335 14 16.3335C13.3583 16.3335 12.74 16.2518 12.1567 16.0885C10.0217 15.5052 8.295 13.9418 7.49 11.9118C7.175 11.1185 7 10.2435 7 9.3335C7 5.47183 10.1383 2.3335 14 2.3335C17.8617 2.3335 21 5.47183 21 9.3335Z" stroke="white" stroke-width="1.5" stroke-linecap="round" stroke-linejoin="round"/>
<path d="M25.6667 18.6666C25.6667 22.5283 22.5283 25.6666 18.6667 25.6666C16.87 25.6666 15.2367 24.99 14 23.87C15.435 22.5983 16.3333 20.7316 16.3333 18.6666C16.3333 17.7566 16.1583 16.8816 15.8433 16.0883C17.9783 15.505 19.705 13.9416 20.51 11.9116C23.4733 12.7166 25.6667 15.4466 25.6667 18.6666Z" stroke="white" stroke-width="1.5" stroke-linecap="round" stroke-linejoin="round"/>
<path d="M2.38605 35V42.01H3.25605V39.08H7.07606V38.27H3.25605V35.83H7.24606V35H2.38605ZM8.29699 35.55C8.29699 35.78 8.38699 35.94 8.56699 36.03C8.74699 36.13 8.92699 36.13 9.10699 36.04C9.28699 35.95 9.37699 35.79 9.37699 35.56C9.37699 35.34 9.28699 35.18 9.10699 35.08C8.92699 34.99 8.74699 34.99 8.56699 35.08C8.38699 35.17 8.29699 35.33 8.29699 35.55ZM8.41699 37.04H9.23699V42H8.41699V37.04ZM11.6212 35H10.8012V42H11.6212V35ZM14.5726 35.62L13.7526 35.71V37.07H12.7626V37.77H13.7526V40.38C13.7526 41.53 14.2726 42.09 15.3126 42.07C15.6126 42.07 15.9326 41.99 16.2726 41.83L16.0326 41.15C15.7926 41.27 15.5626 41.33 15.3426 41.33C14.8226 41.33 14.5626 41.02 14.5626 40.38V37.77H16.1026V37.07H14.5726V35.62ZM21.5872 41.21L21.0372 40.71C20.8772 40.91 20.6472 41.06 20.3472 41.17C20.0472 41.28 19.7572 41.33 19.4672 41.33C18.9872 41.33 18.5772 41.2 18.2472 40.93C17.9072 40.66 17.7172 40.3 17.6772 39.85H21.8772C21.9672 38.91 21.7772 38.2 21.3072 37.7C20.8372 37.2 20.2072 36.95 19.4072 36.95C18.6572 36.95 18.0472 37.19 17.5672 37.67C17.0872 38.15 16.8472 38.77 16.8472 39.51C16.8472 40.29 17.0872 40.92 17.5672 41.39C18.0472 41.86 18.6672 42.09 19.4472 42.09C19.8472 42.09 20.2472 42.02 20.6372 41.87C21.0172 41.72 21.3372 41.5 21.5772 41.21H21.5872ZM21.0972 39.16H17.6772C17.7372 38.7 17.9372 38.34 18.2672 38.08C18.5872 37.82 18.9772 37.69 19.4272 37.69C19.9172 37.69 20.3172 37.82 20.6172 38.08C20.9172 38.34 21.0772 38.7 21.0972 39.17V39.16ZM23.7766 37.06H23.0166V42H23.8366V39.25C23.8366 38.81 23.9766 38.46 24.2566 38.19C24.5366 37.92 24.8766 37.78 25.2866 37.77C25.5966 37.77 25.8866 37.86 26.1466 38.04L26.5166 37.34C26.1766 37.08 25.7966 36.96 25.3666 36.97C24.6466 36.97 24.1366 37.25 23.8466 37.79L23.7866 37.05L23.7766 37.06Z" fill="white"/>
</svg>
