<svg width="22" height="22" viewBox="0 0 22 22" fill="none" xmlns="http://www.w3.org/2000/svg">
<path d="M9.04682 7.23125C9.55909 5.69444 11.5866 5.36542 12.5585 6.66138C13.1279 7.42052 13.0882 8.47458 12.4633 9.18871L11.5441 10.2392C10.7098 11.1927 10.25 12.4165 10.25 13.6834V14C10.25 14.4142 10.5858 14.75 11 14.75C11.4142 14.75 11.75 14.4142 11.75 14V13.6834C11.75 12.7798 12.078 11.907 12.673 11.227L13.5922 10.1765C14.6838 8.92892 14.7532 7.08755 13.7585 5.76138C12.0606 3.49743 8.5187 4.0722 7.62379 6.75691L7.28849 7.76283C7.1575 8.15579 7.36987 8.58053 7.76283 8.71151C8.15579 8.8425 8.58053 8.63013 8.71151 8.23717L9.04682 7.23125Z" fill="#2D264B"/>
<path fill-rule="evenodd" clip-rule="evenodd" d="M11 0.25C5.06294 0.25 0.25 5.06294 0.25 11C0.25 16.9371 5.06294 21.75 11 21.75C16.9371 21.75 21.75 16.9371 21.75 11C21.75 5.06294 16.9371 0.25 11 0.25ZM1.75 11C1.75 5.89137 5.89137 1.75 11 1.75C16.1086 1.75 20.25 5.89137 20.25 11C20.25 16.1086 16.1086 20.25 11 20.25C5.89137 20.25 1.75 16.1086 1.75 11Z" fill="#2D264B"/>
<path d="M12 17C12 17.5523 11.5523 18 11 18C10.4477 18 10 17.5523 10 17C10 16.4477 10.4477 16 11 16C11.5523 16 12 16.4477 12 17Z" fill="#2D264B"/>
</svg>
