<svg width="24" height="24" viewBox="0 0 24 24" fill="none" xmlns="http://www.w3.org/2000/svg">
<path d="M12.9231 10.7692C12.9231 10.2594 12.5098 9.84615 12 9.84615C11.4902 9.84615 11.0769 10.2594 11.0769 10.7692V18.1538C11.0769 18.6636 11.4902 19.0769 12 19.0769C12.5098 19.0769 12.9231 18.6636 12.9231 18.1538V10.7692Z" fill="black"/>
<path fill-rule="evenodd" clip-rule="evenodd" d="M17.4936 0.152281C16.0879 -1.78814e-05 14.316 -9.88738e-06 12.0557 1.62876e-07H11.9443C9.68396 -9.88738e-06 7.91214 -1.78814e-05 6.50643 0.152281C5.07192 0.3077 3.90961 0.630553 2.91721 1.35157C2.31642 1.78807 1.78807 2.31642 1.35157 2.91721C0.630553 3.90961 0.3077 5.07192 0.152281 6.50643C-1.78814e-05 7.91214 -9.88738e-06 9.68396 1.62877e-07 11.9443V12.0557C-9.88738e-06 14.316 -1.78814e-05 16.0879 0.152281 17.4936C0.3077 18.9281 0.630553 20.0904 1.35157 21.0828C1.78807 21.6836 2.31642 22.2119 2.91721 22.6484C3.90961 23.3694 5.07193 23.6923 6.50643 23.8477C7.91211 24 9.6839 24 11.9442 24H12.0557C14.316 24 16.0879 24 17.4936 23.8477C18.9281 23.6923 20.0904 23.3694 21.0828 22.6484C21.6836 22.2119 22.2119 21.6836 22.6484 21.0828C23.3694 20.0904 23.6923 18.9281 23.8477 17.4936C24 16.0879 24 14.3161 24 12.0558V11.9443C24 9.68399 24 7.91211 23.8477 6.50643C23.6923 5.07193 23.3694 3.90961 22.6484 2.91721C22.2119 2.31642 21.6836 1.78807 21.0828 1.35157C20.0904 0.630553 18.9281 0.3077 17.4936 0.152281ZM4.00235 2.84514C4.62759 2.39088 5.42786 2.12609 6.70529 1.98769C7.99999 1.84742 9.67191 1.84615 12 1.84615C14.3281 1.84615 16 1.84742 17.2947 1.98769C18.5721 2.12609 19.3724 2.39088 19.9976 2.84514C20.4417 3.16777 20.8322 3.55829 21.1549 4.00235C21.6091 4.62759 21.8739 5.42786 22.0123 6.70529C22.1526 7.99999 22.1538 9.67191 22.1538 12C22.1538 14.3281 22.1526 16 22.0123 17.2947C21.8739 18.5721 21.6091 19.3724 21.1549 19.9976C20.8322 20.4417 20.4417 20.8322 19.9976 21.1549C19.3724 21.6091 18.5721 21.8739 17.2947 22.0123C16 22.1526 14.3281 22.1538 12 22.1538C9.67191 22.1538 7.99999 22.1526 6.70529 22.0123C5.42786 21.8739 4.62759 21.6091 4.00235 21.1549C3.55829 20.8322 3.16777 20.4417 2.84514 19.9976C2.39088 19.3724 2.12609 18.5721 1.98769 17.2947C1.84742 16 1.84615 14.3281 1.84615 12C1.84615 9.67191 1.84742 7.99999 1.98769 6.70529C2.12609 5.42786 2.39088 4.62759 2.84514 4.00235C3.16777 3.55829 3.55829 3.16777 4.00235 2.84514Z" fill="black"/>
<path d="M13.2308 7.07692C13.2308 7.75666 12.6797 8.30769 12 8.30769C11.3203 8.30769 10.7692 7.75666 10.7692 7.07692C10.7692 6.39719 11.3203 5.84615 12 5.84615C12.6797 5.84615 13.2308 6.39719 13.2308 7.07692Z" fill="black"/>
</svg>
