<svg width="20" height="20" viewBox="0 0 20 20" fill="none" xmlns="http://www.w3.org/2000/svg">
<path d="M13.0808 19.75C13.9328 19.7501 14.4518 19.7501 14.8995 19.6792C17.3599 19.2895 19.2895 17.3599 19.6792 14.8995C19.7501 14.4518 19.7501 13.9328 19.75 13.0808L19.75 6.91917C19.7501 6.06716 19.7501 5.54817 19.6792 5.10049C19.2895 2.64011 17.3599 0.71047 14.8995 0.320784C14.4518 0.24988 13.9328 0.24992 13.0808 0.249989L12 0.249992C10.7064 0.249992 9.51064 0.678055 8.54956 1.39995C8.21837 1.64872 8.15155 2.11887 8.40032 2.45006C8.64908 2.78125 9.11923 2.84807 9.45043 2.5993C10.1607 2.06582 11.0424 1.74999 12 1.74999H13C13.9577 1.74999 14.3492 1.75232 14.6648 1.80232C16.4834 2.09035 17.9096 3.5166 18.1977 5.33514C18.2477 5.65081 18.25 6.04233 18.25 6.99999L18.25 13C18.25 13.9577 18.2477 14.3492 18.1977 14.6648C17.9096 16.4834 16.4834 17.9096 14.6648 18.1977C14.3492 18.2477 13.9577 18.25 13 18.25H12C11.0424 18.25 10.1607 17.9342 9.45042 17.4007C9.11923 17.1519 8.64908 17.2187 8.40032 17.5499C8.15155 17.8811 8.21837 18.3513 8.54956 18.6C9.51064 19.3219 10.7064 19.75 12 19.75L13.0808 19.75Z" fill="#2D264B"/>
<path d="M4.53402 14.5877C4.85859 14.845 5.33033 14.7905 5.58768 14.466C5.84502 14.1414 5.79053 13.6697 5.46596 13.4123L3.70299 12.0145C2.99897 11.4562 2.51696 11.0726 2.18951 10.75L15 10.75C15.4142 10.75 15.75 10.4142 15.75 9.99999C15.75 9.58578 15.4142 9.24999 15 9.24999L2.18951 9.24999C2.51696 8.92733 2.99897 8.54374 3.70299 7.98552L5.46596 6.58768C5.79053 6.33033 5.84503 5.85859 5.58768 5.53402C5.33033 5.20945 4.85859 5.15496 4.53402 5.41231L2.73525 6.83854C2.06276 7.37173 1.50784 7.8117 1.11251 8.2055C0.706839 8.60962 0.370546 9.05815 0.279224 9.63132C0.259769 9.75343 0.249992 9.87661 0.249992 9.99999C0.249992 10.1234 0.259769 10.2466 0.279224 10.3687C0.370546 10.9418 0.706839 11.3904 1.11251 11.7945C1.50783 12.1883 2.06275 12.6282 2.73523 13.1614L4.53402 14.5877Z" fill="#2D264B"/>
</svg>
