<svg width="26" height="24" viewBox="0 0 26 24" fill="none" xmlns="http://www.w3.org/2000/svg">
<path fill-rule="evenodd" clip-rule="evenodd" d="M12.7398 13.709C11.9593 13.709 11.1811 13.4512 10.5301 12.9355L5.2976 8.71682C4.92077 8.41349 4.86243 7.86166 5.1646 7.48599C5.4691 7.11149 6.01977 7.05199 6.39543 7.35416L11.6233 11.5682C12.2801 12.0885 13.2053 12.0885 13.8668 11.5635L19.0421 7.35649C19.4178 7.04966 19.9684 7.10799 20.2741 7.48366C20.5786 7.85816 20.5214 8.40882 20.1469 8.71449L14.9623 12.9285C14.3066 13.4488 13.5226 13.709 12.7398 13.709Z" fill="white"/>
<mask id="mask0_1292_8039" style="mask-type:alpha" maskUnits="userSpaceOnUse" x="0" y="0" width="26" height="24">
<path fill-rule="evenodd" clip-rule="evenodd" d="M0.166687 0.333374H25.2499V23.0834H0.166687V0.333374Z" fill="white"/>
</mask>
<g mask="url(#mask0_1292_8039)">
<path fill-rule="evenodd" clip-rule="evenodd" d="M6.97873 21.3334H18.4354C18.4377 21.331 18.4471 21.3334 18.4541 21.3334C19.7852 21.3334 20.9659 20.8574 21.8712 19.9532C22.9224 18.9067 23.4999 17.4029 23.4999 15.7194V7.70671C23.4999 4.44821 21.3696 2.08337 18.4354 2.08337H6.98107C4.0469 2.08337 1.91657 4.44821 1.91657 7.70671V15.7194C1.91657 17.4029 2.49523 18.9067 3.54523 19.9532C4.45057 20.8574 5.6324 21.3334 6.9624 21.3334H6.97873ZM6.9589 23.0834C5.15873 23.0834 3.55107 22.43 2.30973 21.1934C0.927232 19.8144 0.166565 17.8707 0.166565 15.7194V7.70671C0.166565 3.50321 3.09607 0.333374 6.98107 0.333374H18.4354C22.3204 0.333374 25.2499 3.50321 25.2499 7.70671V15.7194C25.2499 17.8707 24.4892 19.8144 23.1067 21.1934C21.8666 22.4289 20.2577 23.0834 18.4541 23.0834H18.4354H6.98107H6.9589Z" fill="white"/>
</g>
</svg>
