<svg width="20" height="24" viewBox="0 0 20 24" fill="none" xmlns="http://www.w3.org/2000/svg">
<path d="M8.3577 10.5616L8.62013 10.4741C9.36481 10.2259 10.1699 10.2259 10.9146 10.4741L11.177 10.5616C11.6157 10.7078 12.0898 10.4708 12.236 10.0321C12.3822 9.59346 12.1452 9.11934 11.7065 8.97312L11.4441 8.88565C10.3557 8.52285 9.17902 8.52285 8.09063 8.88565L7.82821 8.97312C7.38956 9.11934 7.1525 9.59346 7.29872 10.0321C7.44493 10.4708 7.91906 10.7078 8.3577 10.5616Z" fill="#2D264B"/>
<path fill-rule="evenodd" clip-rule="evenodd" d="M9.76736 0C6.83899 0 4.46508 2.37391 4.46508 5.30228V9.76736C4.46508 12.6957 6.83899 15.0696 9.76736 15.0696C12.6957 15.0696 15.0696 12.6957 15.0696 9.76736V5.30228C15.0696 2.37391 12.6957 0 9.76736 0ZM6.13948 5.30228C6.13948 3.29866 7.76374 1.6744 9.76736 1.6744C11.771 1.6744 13.3952 3.29866 13.3952 5.30228V9.76736C13.3952 11.771 11.771 13.3952 9.76736 13.3952C7.76374 13.3952 6.13948 11.771 6.13948 9.76736V5.30228Z" fill="#2D264B"/>
<path d="M1.6744 9.76736C1.6744 9.30499 1.29958 8.93016 0.837202 8.93016C0.374828 8.93016 0 9.30499 0 9.76736C0 14.8797 3.92771 19.0747 8.93016 19.4993V21.9939C8.68856 22.0257 8.44832 22.0713 8.21064 22.1307L7.33177 22.3504C6.8832 22.4625 6.61047 22.9171 6.72262 23.3657C6.83476 23.8142 7.2893 24.0869 7.73787 23.9748L8.61674 23.7551C8.99447 23.6607 9.38091 23.6134 9.76736 23.6134C10.1538 23.6134 10.5403 23.6607 10.918 23.7551L11.7969 23.9748C12.2454 24.0869 12.7 23.8142 12.8121 23.3657C12.9243 22.9171 12.6515 22.4625 12.203 22.3504L11.3241 22.1307C11.0864 22.0713 10.8462 22.0257 10.6046 21.9939V19.4993C15.607 19.0747 19.5347 14.8797 19.5347 9.76736C19.5347 9.30499 19.1599 8.93016 18.6975 8.93016C18.2351 8.93016 17.8603 9.30499 17.8603 9.76736C17.8603 14.237 14.237 17.8603 9.76736 17.8603C5.29775 17.8603 1.6744 14.237 1.6744 9.76736Z" fill="#2D264B"/>
</svg>
