<svg width="16" height="16" viewBox="0 0 16 16" fill="none" xmlns="http://www.w3.org/2000/svg">
<path d="M4.18669 14.6667C5.33544 14.6667 6.26669 13.7355 6.26669 12.5867C6.26669 11.438 5.33544 10.5067 4.18669 10.5067C3.03794 10.5067 2.10669 11.438 2.10669 12.5867C2.10669 13.7355 3.03794 14.6667 4.18669 14.6667Z" stroke="white" stroke-linecap="round" stroke-linejoin="round"/>
<path d="M13.8933 11.1999V3.06661C13.8933 1.33327 12.8067 1.09327 11.7067 1.39327L7.54666 2.52661C6.78666 2.73327 6.26666 3.33327 6.26666 4.19994V5.64661V6.61994V12.5799" stroke="white" stroke-linecap="round" stroke-linejoin="round"/>
<path d="M11.8133 13.28C12.9621 13.28 13.8933 12.3487 13.8933 11.2C13.8933 10.0512 12.9621 9.12 11.8133 9.12C10.6646 9.12 9.73334 10.0512 9.73334 11.2C9.73334 12.3487 10.6646 13.28 11.8133 13.28Z" stroke="white" stroke-linecap="round" stroke-linejoin="round"/>
<path d="M6.26666 6.34672L13.8933 4.26672" stroke="white" stroke-linecap="round" stroke-linejoin="round"/>
</svg>
