<svg width="20" height="20" viewBox="0 0 20 20" fill="none" xmlns="http://www.w3.org/2000/svg">
<mask id="mask0_182_325" style="mask-type:alpha" maskUnits="userSpaceOnUse" x="2" y="0" width="16" height="16">
<path fill-rule="evenodd" clip-rule="evenodd" d="M2.50007 0.833328H17.9142V15.29H2.50007V0.833328Z" fill="white"/>
</mask>
<g mask="url(#mask0_182_325)">
<path fill-rule="evenodd" clip-rule="evenodd" d="M10.2059 2.08333C7.29342 2.08333 5.26342 4.36499 5.26342 6.41249C5.26342 8.14499 4.78258 8.94583 4.35758 9.65249C4.01675 10.22 3.74758 10.6683 3.74758 11.6425C3.88675 13.2142 4.92425 14.04 10.2059 14.04C15.4584 14.04 16.5284 13.1775 16.6668 11.5883C16.6643 10.6683 16.3951 10.22 16.0543 9.65249C15.6293 8.94583 15.1484 8.14499 15.1484 6.41249C15.1484 4.36499 13.1184 2.08333 10.2059 2.08333ZM10.2059 15.29C6.30925 15.29 2.78758 15.015 2.50008 11.6958C2.49758 10.3225 2.91675 9.62416 3.28675 9.00916C3.66092 8.38583 4.01342 7.79833 4.01342 6.4125C4.01342 3.71833 6.50175 0.833328 10.2059 0.833328C13.9101 0.833328 16.3984 3.71833 16.3984 6.4125C16.3984 7.79833 16.7509 8.38583 17.1251 9.00916C17.4951 9.62416 17.9142 10.3225 17.9142 11.6425C17.6234 15.015 14.1026 15.29 10.2059 15.29Z" fill="black"/>
</g>
<path fill-rule="evenodd" clip-rule="evenodd" d="M10.1652 18.75H10.1636C9.22942 18.7492 8.34525 18.3375 7.67442 17.59C7.44358 17.3342 7.46442 16.9383 7.72108 16.7083C7.97775 16.4767 8.37275 16.4975 8.60358 16.755C9.03525 17.2358 9.58942 17.5 10.1644 17.5H10.1652C10.7427 17.5 11.2994 17.2358 11.7319 16.7542C11.9636 16.4983 12.3586 16.4775 12.6144 16.7083C12.8711 16.9392 12.8919 17.335 12.6611 17.5908C11.9877 18.3383 11.1019 18.75 10.1652 18.75Z" fill="black"/>
</svg>
