<svg width="19" height="20" viewBox="0 0 19 20" fill="none" xmlns="http://www.w3.org/2000/svg">
<path fill-rule="evenodd" clip-rule="evenodd" d="M12.0733 3.20654C10.3412 2.21896 8.9958 1.45183 7.90313 0.954178C6.80638 0.454658 5.85435 0.172566 4.92862 0.268654C3.45941 0.421157 2.1219 1.18242 1.25027 2.36721C0.699716 3.11557 0.470482 4.07608 0.360016 5.26521C0.249991 6.44959 0.249995 7.98465 0.25 9.95884V10.0411C0.249995 12.0153 0.249991 13.5504 0.360015 14.7347C0.470482 15.9239 0.699715 16.8844 1.25027 17.6327C2.1219 18.8175 3.45941 19.5788 4.92862 19.7313C5.85435 19.8274 6.80638 19.5453 7.90313 19.0458C8.99579 18.5481 10.3412 17.781 12.0732 16.7934L12.1435 16.7533C13.8755 15.7658 15.2209 14.9987 16.2038 14.3129C17.1894 13.6252 17.916 12.9503 18.297 12.1052C18.901 10.7654 18.901 9.2346 18.297 7.89473C17.916 7.04969 17.1894 6.37477 16.2038 5.68703C15.2209 5.00126 13.8755 4.23412 12.1435 3.24661L12.0733 3.20654ZM5.08349 1.76064C5.60339 1.70667 6.25504 1.8518 7.28141 2.31926C8.3045 2.78523 9.5909 3.51785 11.3654 4.52961C13.1399 5.5414 14.4254 6.27525 15.3455 6.91719C16.2693 7.5618 16.7192 8.04483 16.9295 8.51122C17.3568 9.4591 17.3568 10.5409 16.9295 11.4887C16.7192 11.9551 16.2693 12.4382 15.3455 13.0828C14.4254 13.7247 13.1399 14.4586 11.3654 15.4704C9.5909 16.4821 8.3045 17.2147 7.2814 17.6807C6.25504 18.1482 5.60339 18.2933 5.08349 18.2393C4.03083 18.1301 3.07738 17.5851 2.45852 16.7439C2.15468 16.3309 1.95672 15.7062 1.85358 14.596C1.75077 13.4893 1.75 12.0239 1.75 9.99998C1.75 7.97602 1.75077 6.5107 1.85358 5.40396C1.95672 4.29377 2.15468 3.6691 2.45852 3.2561C3.07738 2.41489 4.03083 1.8699 5.08349 1.76064Z" fill="white"/>
</svg>
