<svg width="22" height="22" viewBox="0 0 22 22" fill="none" xmlns="http://www.w3.org/2000/svg">
<path d="M9.74991 7.00006C9.74991 6.58584 9.41413 6.25006 8.99991 6.25006C8.5857 6.25006 8.24991 6.58584 8.24991 7.00006V15.0001C8.24991 15.4143 8.5857 15.7501 8.99991 15.7501C9.41413 15.7501 9.74991 15.4143 9.74991 15.0001L9.74991 7.00006Z" fill="#2D264B"/>
<path d="M13.7499 7.00006C13.7499 6.58584 13.4141 6.25006 12.9999 6.25006C12.5857 6.25006 12.2499 6.58584 12.2499 7.00006V15.0001C12.2499 15.4143 12.5857 15.7501 12.9999 15.7501C13.4141 15.7501 13.7499 15.4143 13.7499 15.0001V7.00006Z" fill="#2D264B"/>
<path fill-rule="evenodd" clip-rule="evenodd" d="M11.285 0.0306333C11.0951 0.0212017 10.9048 0.0212017 10.7148 0.0306333C9.98142 0.0670436 9.30626 0.280134 8.5536 0.629409C7.82088 0.969435 6.96945 1.46101 5.89228 2.08293L5.83127 2.11815C4.7541 2.74005 3.90266 3.23162 3.24182 3.69617C2.56301 4.17335 2.04089 4.65151 1.64268 5.26842C1.53952 5.42822 1.44437 5.59304 1.35755 5.76227C1.0224 6.41559 0.86936 7.10684 0.795513 7.9333C0.723622 8.73787 0.723627 9.72103 0.723633 10.9648V11.0353C0.723627 12.2791 0.723622 13.2622 0.795513 14.0668C0.86936 14.8933 1.0224 15.5845 1.35755 16.2378C1.44436 16.4071 1.53952 16.5719 1.64268 16.7317C2.04089 17.3486 2.56301 17.8268 3.24182 18.3039C3.90263 18.7685 4.75403 19.26 5.83115 19.8819L5.89226 19.9172C6.96944 20.5391 7.82087 21.0307 8.5536 21.3707C9.30626 21.72 9.98142 21.9331 10.7148 21.9695C10.9048 21.9789 11.0951 21.9789 11.285 21.9695C12.0184 21.9331 12.6936 21.72 13.4462 21.3707C14.179 21.0307 15.0304 20.5391 16.1076 19.9172L16.1686 19.8819C17.2457 19.2601 18.0972 18.7685 18.758 18.3039C19.4368 17.8268 19.9589 17.3486 20.3571 16.7317C20.4603 16.5719 20.5555 16.4071 20.6423 16.2378C20.9774 15.5845 21.1305 14.8933 21.2043 14.0668C21.2762 13.2623 21.2762 12.2791 21.2762 11.0353V10.9648C21.2762 9.72106 21.2762 8.73786 21.2043 7.9333C21.1305 7.10684 20.9774 6.41559 20.6423 5.76227C20.5555 5.59304 20.4603 5.42822 20.3571 5.26842C19.9589 4.65151 19.4368 4.17335 18.758 3.69617C18.0972 3.23162 17.2457 2.74005 16.1686 2.11815L16.1075 2.08292C15.0304 1.46101 14.1789 0.969435 13.4462 0.629409C12.6936 0.280134 12.0184 0.0670436 11.285 0.0306333ZM10.7892 1.52879C10.9296 1.52182 11.0702 1.52182 11.2107 1.52879C11.6835 1.55226 12.1629 1.68753 12.8148 1.99004C13.4797 2.2986 14.2737 2.75618 15.3881 3.39958C16.5024 4.04297 17.2957 4.50174 17.8954 4.9233C18.4833 5.3366 18.8402 5.68417 19.0969 6.08191C19.1731 6.20003 19.2435 6.32185 19.3076 6.44693C19.5237 6.86815 19.6463 7.35098 19.7103 8.0668C19.7755 8.79692 19.7762 9.71327 19.7762 11.0001C19.7762 12.2868 19.7755 13.2032 19.7103 13.9333C19.6463 14.6491 19.5237 15.132 19.3076 15.5532C19.2435 15.6783 19.1731 15.8001 19.0969 15.9182C18.8402 16.3159 18.4833 16.6635 17.8954 17.0768C17.2957 17.4984 16.5024 17.9571 15.3881 18.6005C14.2737 19.2439 13.4797 19.7015 12.8148 20.0101C12.1629 20.3126 11.6835 20.4479 11.2107 20.4713C11.0702 20.4783 10.9296 20.4783 10.7892 20.4713C10.3163 20.4479 9.83691 20.3126 9.18501 20.0101C8.52009 19.7015 7.72616 19.2439 6.61177 18.6005C5.49738 17.9571 4.70414 17.4984 4.10446 17.0768C3.51653 16.6635 3.15967 16.3159 2.90293 15.9182C2.82668 15.8001 2.75635 15.6783 2.69218 15.5532C2.4761 15.132 2.35352 14.6491 2.28956 13.9333C2.22432 13.2032 2.22363 12.2868 2.22363 11.0001C2.22363 9.71327 2.22432 8.79692 2.28956 8.0668C2.35352 7.35098 2.4761 6.86815 2.69218 6.44693C2.75635 6.32185 2.82668 6.20002 2.90293 6.08191C3.15967 5.68417 3.51653 5.3366 4.10446 4.9233C4.70414 4.50174 5.49738 4.04297 6.61177 3.39958C7.72616 2.75618 8.52009 2.2986 9.18501 1.99004C9.83691 1.68753 10.3163 1.55226 10.7892 1.52879Z" fill="#2D264B"/>
</svg>
