<svg width="20" height="14" viewBox="0 0 20 14" fill="none" xmlns="http://www.w3.org/2000/svg">
<path fill-rule="evenodd" clip-rule="evenodd" d="M9.9697 0C8.21243 0 6.78788 1.42455 6.78788 3.18182C6.78788 4.93909 8.21243 6.36364 9.9697 6.36364C11.727 6.36364 13.1515 4.93909 13.1515 3.18182C13.1515 1.42455 11.727 0 9.9697 0ZM8.06061 3.18182C8.06061 2.12746 8.91534 1.27273 9.9697 1.27273C11.0241 1.27273 11.8788 2.12746 11.8788 3.18182C11.8788 4.23618 11.0241 5.09091 9.9697 5.09091C8.91534 5.09091 8.06061 4.23618 8.06061 3.18182Z" fill="#2D264B"/>
<path fill-rule="evenodd" clip-rule="evenodd" d="M7.42424 7.63636C5.66697 7.63636 4.24242 9.06091 4.24242 10.8182C4.24242 12.5755 5.66697 14 7.42424 14H12.5152C14.2724 14 15.697 12.5755 15.697 10.8182C15.697 9.06091 14.2724 7.63636 12.5152 7.63636H7.42424ZM5.51515 10.8182C5.51515 9.76382 6.36988 8.90909 7.42424 8.90909H12.5152C13.5695 8.90909 14.4242 9.76382 14.4242 10.8182C14.4242 11.8725 13.5695 12.7273 12.5152 12.7273H7.42424C6.36988 12.7273 5.51515 11.8725 5.51515 10.8182Z" fill="#2D264B"/>
<path d="M6.36545 5.42068C6.23162 5.20569 5.98051 5.09091 5.72727 5.09091C4.67291 5.09091 3.81818 4.23618 3.81818 3.18182C3.81818 2.12746 4.67291 1.27273 5.72727 1.27273C5.98051 1.27273 6.23162 1.15795 6.36545 0.942961C6.37137 0.933452 6.37733 0.923969 6.38332 0.914511C6.60613 0.562806 6.49324 0.0648247 6.07939 0.0192634C5.96377 0.00653418 5.84629 0 5.72727 0C3.97 0 2.54545 1.42455 2.54545 3.18182C2.54545 4.93909 3.97 6.36364 5.72727 6.36364C5.84629 6.36364 5.96377 6.3571 6.0794 6.34437C6.49324 6.29881 6.60613 5.80083 6.38332 5.44913C6.37733 5.43967 6.37137 5.43018 6.36545 5.42068Z" fill="#2D264B"/>
<path d="M3.78279 12.1476C3.68647 11.9869 3.51646 11.8788 3.3291 11.8788H3.18182C2.12746 11.8788 1.27273 11.0241 1.27273 9.9697C1.27273 8.91534 2.12746 8.06061 3.18182 8.06061H3.3291C3.51646 8.06061 3.68647 7.95244 3.78279 7.79175C4.01791 7.39949 3.76276 6.78788 3.30544 6.78788H3.18182C1.42455 6.78788 0 8.21243 0 9.9697C0 11.727 1.42455 13.1515 3.18182 13.1515H3.30544C3.76276 13.1515 4.01791 12.5399 3.78279 12.1476Z" fill="#2D264B"/>
<path d="M13.5561 5.44913C13.3333 5.80083 13.4462 6.29881 13.86 6.34437C13.9756 6.3571 14.0931 6.36364 14.2121 6.36364C15.9694 6.36364 17.3939 4.93909 17.3939 3.18182C17.3939 1.42455 15.9694 0 14.2121 0C14.0931 0 13.9756 0.00653422 13.86 0.0192635C13.4462 0.064825 13.3333 0.562806 13.5561 0.91451C13.5621 0.923968 13.568 0.93345 13.5739 0.942958C13.7078 1.15795 13.9589 1.27273 14.2121 1.27273C15.2665 1.27273 16.1212 2.12746 16.1212 3.18182C16.1212 4.23618 15.2665 5.09091 14.2121 5.09091C13.9589 5.09091 13.7078 5.20569 13.5739 5.42068C13.568 5.43018 13.5621 5.43967 13.5561 5.44913Z" fill="#2D264B"/>
<path d="M16.1566 12.1476C15.9215 12.5399 16.1766 13.1515 16.634 13.1515H16.7576C18.5148 13.1515 19.9394 11.727 19.9394 9.9697C19.9394 8.21243 18.5148 6.78788 16.7576 6.78788H16.634C16.1766 6.78788 15.9215 7.39949 16.1566 7.79175C16.2529 7.95244 16.4229 8.06061 16.6103 8.06061H16.7576C17.8119 8.06061 18.6667 8.91534 18.6667 9.9697C18.6667 11.0241 17.8119 11.8788 16.7576 11.8788H16.6103C16.4229 11.8788 16.2529 11.9869 16.1566 12.1476Z" fill="#2D264B"/>
</svg>
