<svg width="22" height="21" viewBox="0 0 22 21" fill="none" xmlns="http://www.w3.org/2000/svg">
<path fill-rule="evenodd" clip-rule="evenodd" d="M15.7276 0.25C15.0835 0.25 14.5514 0.519499 14.0478 0.903733C13.5707 1.26776 13.0409 1.79756 12.4056 2.4329L6.92473 7.91374C6.50384 8.33393 6.17105 8.66617 5.96696 9.09083C5.76286 9.51548 5.71131 9.98289 5.64612 10.574L5.62843 10.7338C5.50649 11.831 5.40597 12.7353 5.42898 13.4477C5.45304 14.1928 5.61405 14.8752 6.14744 15.4086C6.68084 15.942 7.36328 16.103 8.10833 16.1271C8.82071 16.1501 9.72506 16.0496 10.8222 15.9276L10.9821 15.9099C11.5732 15.8447 12.0406 15.7932 12.4652 15.5891C12.8899 15.385 13.2221 15.0522 13.6423 14.6313L19.1231 9.15043C19.7585 8.51512 20.2883 7.98536 20.6523 7.50824C21.0366 7.00463 21.3061 6.47256 21.3061 5.82843C21.3061 5.1843 21.0366 4.65222 20.6523 4.14862C20.2883 3.6715 19.7585 3.14174 19.1232 2.50644L19.0497 2.43293C18.4143 1.79757 17.8846 1.26777 17.4074 0.903733C16.9038 0.519499 16.3718 0.25 15.7276 0.25ZM18.5548 7.59491L13.9611 3.00128C14.3668 2.60162 14.6805 2.30772 14.9577 2.09627C15.3279 1.81383 15.5433 1.75 15.7276 1.75C15.9119 1.75 16.1274 1.81383 16.4976 2.09627C16.8851 2.3919 17.3441 2.84867 18.0257 3.53033C18.7074 4.21199 19.1642 4.67101 19.4598 5.05849C19.7422 5.42866 19.8061 5.64413 19.8061 5.82843C19.8061 6.01272 19.7422 6.22819 19.4598 6.59836C19.2483 6.87551 18.9544 7.18927 18.5548 7.59491ZM12.8992 4.06066L17.4954 8.65685L12.6539 13.4983C12.1265 14.0258 11.9807 14.1577 11.8155 14.2372C11.6502 14.3166 11.4561 14.348 10.7147 14.4303C9.54475 14.5603 8.74843 14.647 8.15674 14.6279C7.58517 14.6094 7.35441 14.4943 7.2081 14.348C7.06179 14.2016 6.94665 13.9709 6.9282 13.3993C6.90909 12.8076 6.99571 12.0113 7.12571 10.8413C7.20808 10.1 7.23947 9.90589 7.31891 9.74061C7.39835 9.57533 7.53029 9.42957 8.05773 8.90213L12.8992 4.06066Z" fill="#2D264B"/>
<path d="M8.00899 2.92846C8.42317 2.9235 8.75491 2.58371 8.74995 2.16953C8.74498 1.75534 8.40519 1.42361 7.99101 1.42857C5.56449 1.45766 3.89894 1.59043 2.62024 2.51946C2.13209 2.87412 1.70281 3.3034 1.34815 3.79155C0.762324 4.59787 0.500006 5.54225 0.373728 6.70779C0.249985 7.84992 0.249992 9.28953 0.25 11.1261V11.2166C0.249992 13.0531 0.249985 14.4927 0.373728 15.6348C0.500006 16.8004 0.762324 17.7448 1.34815 18.5511C1.70281 19.0392 2.13209 19.4685 2.62024 19.8232C3.42656 20.409 4.37094 20.6713 5.53648 20.7976C6.67859 20.9213 8.11817 20.9213 9.95465 20.9213H10.0453C11.8818 20.9213 13.3214 20.9213 14.4635 20.7976C15.6291 20.6713 16.5734 20.409 17.3798 19.8232C17.8679 19.4685 18.2972 19.0392 18.6518 18.5511C19.5809 17.2724 19.7137 15.6068 19.7427 13.1803C19.7477 12.7661 19.416 12.4263 19.0018 12.4214C18.5876 12.4164 18.2478 12.7481 18.2428 13.1623C18.2129 15.6631 18.0445 16.835 17.4383 17.6694C17.1762 18.0302 16.8589 18.3475 16.4981 18.6096C15.9901 18.9787 15.3399 19.1939 14.302 19.3063C13.25 19.4203 11.8916 19.4213 10 19.4213C8.10843 19.4213 6.74999 19.4203 5.69804 19.3063C4.66013 19.1939 4.00992 18.9787 3.50191 18.6096C3.14111 18.3475 2.82382 18.0302 2.56168 17.6694C2.19259 17.1614 1.97745 16.5112 1.865 15.4733C1.75103 14.4213 1.75 13.0629 1.75 11.1713C1.75 9.27974 1.75103 7.9213 1.865 6.86936C1.97745 5.83144 2.19259 5.18123 2.56168 4.67322C2.82382 4.31242 3.14111 3.99513 3.50191 3.73299C4.33627 3.1268 5.50819 2.95844 8.00899 2.92846Z" fill="#2D264B"/>
</svg>
