<svg width="20" height="22" viewBox="0 0 20 22" fill="none" xmlns="http://www.w3.org/2000/svg">
<path d="M13.584 9.47057C13.8439 9.14804 13.7931 8.67589 13.4705 8.416C13.148 8.15611 12.6758 8.20689 12.416 8.52943L10.3944 11.0382C9.97937 11.5533 9.71747 11.8755 9.4995 12.0791C9.39707 12.1747 9.33164 12.2173 9.29405 12.2361C9.26605 12.2501 9.25605 12.25 9.25068 12.25H9.24923C9.24386 12.25 9.23386 12.2501 9.20586 12.2361C9.16827 12.2173 9.10284 12.1747 9.00041 12.0791C8.78244 11.8755 8.52054 11.5533 8.10546 11.0382L7.58396 10.391C7.32407 10.0685 6.85192 10.0177 6.52938 10.2776C6.20685 10.5375 6.15606 11.0096 6.41595 11.3321L6.97003 12.0198C7.34254 12.4822 7.67119 12.8901 7.9766 13.1753C8.30452 13.4816 8.71222 13.75 9.24996 13.75C9.78769 13.75 10.1954 13.4816 10.5233 13.1753C10.8287 12.8901 11.1574 12.4822 11.5299 12.0198L13.584 9.47057Z" fill="#2D264B"/>
<path fill-rule="evenodd" clip-rule="evenodd" d="M7.56284 0.25C6.02104 0.25 4.77117 1.49987 4.77117 3.04167C4.77117 3.75503 4.19287 4.33333 3.4795 4.33333H3.17064C1.59458 4.33333 0.190667 5.55273 0.276174 7.24648C0.377698 9.25749 0.824351 12.3918 2.4535 15.3608C2.9098 16.1923 3.51919 17.0092 4.17795 17.7703L4.22755 17.8276C5.17522 18.9226 5.96537 19.8356 6.81485 20.4579C7.72853 21.1273 8.70371 21.4607 10 21.4607C11.2963 21.4607 12.2715 21.1273 13.1852 20.4579C14.0346 19.8356 14.8248 18.9226 15.7725 17.8276L15.8221 17.7703C16.4808 17.0092 17.0902 16.1923 17.5465 15.3608C19.2298 12.2931 19.6496 8.82667 19.7324 6.66561C19.7969 4.97999 18.403 3.75 16.8182 3.75H16.2288C15.6766 3.75 15.2288 3.30228 15.2288 2.75C15.2288 1.36929 14.1096 0.25 12.7288 0.25H7.56284ZM6.27117 3.04167C6.27117 2.3283 6.84947 1.75 7.56284 1.75H12.7288C13.2811 1.75 13.7288 2.19772 13.7288 2.75C13.7288 4.13071 14.8481 5.25 16.2288 5.25H16.8182C17.6558 5.25 18.2616 5.8731 18.2335 6.60819C18.1544 8.67293 17.7518 11.8686 16.2315 14.6392C15.8425 15.348 15.304 16.0768 14.6879 16.7886C13.6778 17.9557 12.9957 18.7373 12.2987 19.2479C11.6512 19.7223 10.9888 19.9607 10 19.9607C9.0112 19.9607 8.34886 19.7223 7.70131 19.2479C7.00433 18.7373 6.32224 17.9557 5.31212 16.7886C4.69604 16.0768 4.15747 15.348 3.76853 14.6392C2.29005 11.9448 1.86972 9.06159 1.77427 7.17085C1.73795 6.45149 2.3305 5.83333 3.17064 5.83333H3.4795C5.0213 5.83333 6.27117 4.58346 6.27117 3.04167Z" fill="#2D264B"/>
</svg>
