<svg width="32" height="46" viewBox="0 0 32 46" fill="none" xmlns="http://www.w3.org/2000/svg">
<path d="M5.01025 10.1151C5.73359 8.06173 7.01694 6.27673 8.6736 4.93506" stroke="white" stroke-width="1.5" stroke-linecap="round" stroke-linejoin="round"/>
<path d="M4.3335 14C4.3335 15.365 4.57848 16.6717 5.01015 17.885" stroke="white" stroke-width="1.5" stroke-linecap="round" stroke-linejoin="round"/>
<path d="M12.605 25.1651C13.6783 25.4918 14.8217 25.6668 16 25.6668C22.44 25.6668 27.6667 20.4401 27.6667 14.0001C27.6667 13.3001 27.5966 12.6118 27.48 11.9468" stroke="white" stroke-width="1.5" stroke-linecap="round" stroke-linejoin="round"/>
<path d="M8.67331 23.0418C8.12498 22.5985 7.59997 22.1084 7.1333 21.5718" stroke="white" stroke-width="1.5" stroke-linecap="round" stroke-linejoin="round"/>
<path d="M25.6133 7.39686C23.5133 4.34019 19.99 2.3335 16 2.3335C14.8217 2.3335 13.6783 2.50849 12.605 2.83515" stroke="white" stroke-width="1.5" stroke-linecap="round" stroke-linejoin="round"/>
<path d="M12.0215 19.9615C13.046 19.9615 13.8765 19.131 13.8765 18.1065C13.8765 17.082 13.046 16.2515 12.0215 16.2515C10.997 16.2515 10.1665 17.082 10.1665 18.1065C10.1665 19.131 10.997 19.9615 12.0215 19.9615Z" stroke="white" stroke-width="1.5" stroke-linecap="round" stroke-linejoin="round"/>
<path d="M20.6664 16.8699V9.62485C20.6664 8.08485 19.698 7.86315 18.718 8.13148L15.0081 9.14655C14.3314 9.33322 13.8647 9.85818 13.8647 10.6398V11.9348V12.7982V18.1065" stroke="white" stroke-width="1.5" stroke-linecap="round" stroke-linejoin="round"/>
<path d="M18.8115 18.7246C19.836 18.7246 20.6665 17.8942 20.6665 16.8697C20.6665 15.8452 19.836 15.0146 18.8115 15.0146C17.7871 15.0146 16.9565 15.8452 16.9565 16.8697C16.9565 17.8942 17.7871 18.7246 18.8115 18.7246Z" stroke="white" stroke-width="1.5" stroke-linecap="round" stroke-linejoin="round"/>
<path d="M13.8765 12.5533L20.6665 10.6982" stroke="white" stroke-width="1.5" stroke-linecap="round" stroke-linejoin="round"/>
<path d="M5.73895 36.53L6.39895 36.12C6.10895 35.64 5.74895 35.3 5.30895 35.12C4.86895 34.94 4.34895 34.85 3.74895 34.85C3.42895 34.85 3.10895 34.89 2.80895 34.96C2.50895 35.03 2.21895 35.14 1.94895 35.28C1.67895 35.43 1.45895 35.64 1.29895 35.9C1.13895 36.16 1.05895 36.47 1.06895 36.81C1.06895 37.09 1.11895 37.33 1.21895 37.54C1.31895 37.75 1.44895 37.92 1.60895 38.05C1.75895 38.18 1.95895 38.29 2.21895 38.39C2.46895 38.49 2.69895 38.56 2.91895 38.61C3.13895 38.66 3.40895 38.71 3.72895 38.75C4.02895 38.8 4.28895 38.85 4.49895 38.9C4.70895 38.96 4.91895 39.03 5.12895 39.12C5.32895 39.22 5.48895 39.34 5.58895 39.49C5.68895 39.65 5.74895 39.83 5.74895 40.03C5.74895 40.28 5.67895 40.49 5.55895 40.67C5.43895 40.85 5.26895 40.98 5.06895 41.07C4.86895 41.17 4.65895 41.23 4.43895 41.27C4.21895 41.31 3.99895 41.33 3.76895 41.33C3.30895 41.33 2.87895 41.23 2.45895 41.01C2.03895 40.8 1.72895 40.5 1.51895 40.1L0.798945 40.52C1.04895 41.08 1.43895 41.49 1.96895 41.75C2.48895 42.01 3.08895 42.14 3.75895 42.14C4.10895 42.14 4.44895 42.11 4.76895 42.03C5.08895 41.96 5.38895 41.85 5.66895 41.69C5.94895 41.54 6.17895 41.32 6.34895 41.04C6.51895 40.76 6.60895 40.44 6.60895 40.06C6.60895 39.76 6.54895 39.49 6.43895 39.26C6.32895 39.03 6.19895 38.85 6.04895 38.71C5.88895 38.58 5.67895 38.46 5.39895 38.36C5.11895 38.26 4.87895 38.18 4.66895 38.13C4.44895 38.09 4.16895 38.04 3.82895 37.98C3.52895 37.94 3.27895 37.89 3.07895 37.84C2.87895 37.79 2.68895 37.72 2.49895 37.63C2.29895 37.55 2.15895 37.44 2.06895 37.3C1.96895 37.17 1.92895 37.01 1.92895 36.83C1.92895 36.44 2.10895 36.14 2.46895 35.94C2.82895 35.74 3.26895 35.63 3.76895 35.63C4.17895 35.64 4.56895 35.72 4.92895 35.87C5.28895 36.02 5.55895 36.24 5.73895 36.53ZM7.48957 39.54C7.48957 40.29 7.72957 40.9 8.20957 41.38C8.68957 41.86 9.30957 42.09 10.0496 42.09C10.7896 42.09 11.4096 41.86 11.8896 41.38C12.3696 40.9 12.6196 40.29 12.6196 39.54C12.6196 38.78 12.3796 38.15 11.8996 37.67C11.4196 37.19 10.7996 36.95 10.0496 36.95C9.30957 36.95 8.68957 37.2 8.20957 37.68C7.72957 38.16 7.48957 38.78 7.48957 39.54ZM11.8096 39.54C11.7996 40.06 11.6296 40.49 11.2996 40.82C10.9696 41.16 10.5496 41.32 10.0496 41.32C9.53957 41.32 9.11957 41.16 8.79957 40.82C8.46957 40.49 8.30957 40.06 8.30957 39.54C8.30957 39 8.46957 38.55 8.79957 38.21C9.12957 37.87 9.54957 37.7 10.0596 37.7C10.5596 37.7 10.9696 37.88 11.3096 38.22C11.6396 38.56 11.8096 39 11.8096 39.54ZM17.6259 42H18.3859V37.06H17.5659V39.71C17.5659 40.17 17.4159 40.55 17.1359 40.85C16.8559 41.16 16.4859 41.32 16.0459 41.32C15.5759 41.32 15.2059 41.19 14.9459 40.91C14.6759 40.64 14.5459 40.26 14.5459 39.78V37.06H13.7259V39.79C13.7259 40.5 13.9159 41.06 14.3159 41.47C14.7159 41.88 15.2359 42.08 15.8759 42.08C16.5959 42.07 17.1759 41.78 17.5959 41.21L17.6359 42H17.6259ZM19.8896 37.06V42H20.6996V39.35C20.6996 38.9 20.8396 38.52 21.1196 38.21C21.3996 37.91 21.7696 37.75 22.2196 37.74C22.6796 37.74 23.0496 37.88 23.3196 38.15C23.5796 38.43 23.7196 38.8 23.7196 39.28V42H24.5396V39.27C24.5396 38.57 24.3296 38.01 23.9296 37.6C23.5296 37.19 23.0096 36.98 22.3696 36.98C21.6596 36.98 21.0996 37.27 20.6796 37.84L20.6396 37.05H19.8896V37.06ZM30.8236 35H30.0136V37.96C29.8436 37.64 29.5836 37.4 29.2436 37.23C28.8936 37.06 28.5336 36.97 28.1636 36.97C27.4336 36.97 26.8336 37.2 26.3736 37.65C25.9036 38.1 25.6736 38.73 25.6736 39.53C25.6736 40.33 25.9036 40.95 26.3736 41.41C26.8436 41.87 27.4436 42.09 28.1736 42.09C28.5536 42.09 28.9036 42.01 29.2336 41.84C29.5636 41.67 29.8236 41.42 30.0236 41.09L30.0636 41.99H30.8336V34.99L30.8236 35ZM28.2236 37.73C28.7236 37.73 29.1336 37.9 29.4736 38.23C29.8136 38.57 29.9836 38.99 29.9836 39.51C29.9836 40.05 29.8136 40.48 29.4836 40.81C29.1436 41.15 28.7336 41.31 28.2336 41.31C27.7336 41.31 27.3136 41.15 26.9836 40.83C26.6536 40.51 26.4936 40.08 26.4936 39.52C26.4936 38.96 26.6536 38.53 26.9836 38.21C27.3136 37.89 27.7336 37.73 28.2336 37.73H28.2236Z" fill="white"/>
</svg>
