<svg width="32" height="46" viewBox="0 0 32 46" fill="none" xmlns="http://www.w3.org/2000/svg">
<path d="M5.81219 36.53L6.47219 36.12C6.18219 35.64 5.82219 35.3 5.38219 35.12C4.94219 34.94 4.42219 34.85 3.82219 34.85C3.50219 34.85 3.18219 34.89 2.88219 34.96C2.58219 35.03 2.29219 35.14 2.02219 35.28C1.75219 35.43 1.53219 35.64 1.37219 35.9C1.21219 36.16 1.13219 36.47 1.14219 36.81C1.14219 37.09 1.19219 37.33 1.29219 37.54C1.39219 37.75 1.52219 37.92 1.68219 38.05C1.83219 38.18 2.03219 38.29 2.29219 38.39C2.54219 38.49 2.77219 38.56 2.99219 38.61C3.21219 38.66 3.48219 38.71 3.80219 38.75C4.10219 38.8 4.36219 38.85 4.57219 38.9C4.78219 38.96 4.99219 39.03 5.20219 39.12C5.40219 39.22 5.56219 39.34 5.66219 39.49C5.76219 39.65 5.82219 39.83 5.82219 40.03C5.82219 40.28 5.75219 40.49 5.63219 40.67C5.51219 40.85 5.34219 40.98 5.14219 41.07C4.94219 41.17 4.73219 41.23 4.51219 41.27C4.29219 41.31 4.07219 41.33 3.84219 41.33C3.38219 41.33 2.95219 41.23 2.53219 41.01C2.11219 40.8 1.80219 40.5 1.59219 40.1L0.872188 40.52C1.12219 41.08 1.51219 41.49 2.04219 41.75C2.56219 42.01 3.16219 42.14 3.83219 42.14C4.18219 42.14 4.52219 42.11 4.84219 42.03C5.16219 41.96 5.46219 41.85 5.74219 41.69C6.02219 41.54 6.25219 41.32 6.42219 41.04C6.59219 40.76 6.68219 40.44 6.68219 40.06C6.68219 39.76 6.62219 39.49 6.51219 39.26C6.40219 39.03 6.27219 38.85 6.12219 38.71C5.96219 38.58 5.75219 38.46 5.47219 38.36C5.19219 38.26 4.95219 38.18 4.74219 38.13C4.52219 38.09 4.24219 38.04 3.90219 37.98C3.60219 37.94 3.35219 37.89 3.15219 37.84C2.95219 37.79 2.76219 37.72 2.57219 37.63C2.37219 37.55 2.23219 37.44 2.14219 37.3C2.04219 37.17 2.00219 37.01 2.00219 36.83C2.00219 36.44 2.18219 36.14 2.54219 35.94C2.90219 35.74 3.34219 35.63 3.84219 35.63C4.25219 35.64 4.64219 35.72 5.00219 35.87C5.36219 36.02 5.63219 36.24 5.81219 36.53ZM7.81445 44.33H8.61445V41.11C8.79445 41.45 9.06445 41.7 9.40445 41.86C9.74445 42.03 10.1045 42.11 10.4845 42.11C11.2245 42.11 11.8345 41.88 12.2945 41.41C12.7545 40.94 12.9945 40.32 12.9945 39.54C12.9945 38.79 12.7645 38.18 12.3045 37.71C11.8445 37.25 11.2545 37.01 10.5345 36.99C10.1345 36.99 9.77445 37.09 9.43445 37.27C9.09445 37.45 8.82445 37.71 8.63445 38.03L8.59445 37.08H7.81445V44.33ZM10.4345 41.34C9.93445 41.34 9.51445 41.17 9.19445 40.83C8.86445 40.49 8.70445 40.07 8.70445 39.56C8.70445 39.05 8.86445 38.63 9.18445 38.29C9.50445 37.96 9.91445 37.79 10.4345 37.79C10.9445 37.79 11.3645 37.95 11.6845 38.27C12.0045 38.59 12.1745 39.02 12.1745 39.56C12.1745 40.11 12.0045 40.54 11.6845 40.86C11.3545 41.18 10.9345 41.34 10.4345 41.34ZM18.6116 41.21L18.0616 40.71C17.9016 40.91 17.6716 41.06 17.3716 41.17C17.0716 41.28 16.7816 41.33 16.4916 41.33C16.0116 41.33 15.6016 41.2 15.2716 40.93C14.9316 40.66 14.7416 40.3 14.7016 39.85H18.9016C18.9916 38.91 18.8016 38.2 18.3316 37.7C17.8616 37.2 17.2316 36.95 16.4316 36.95C15.6816 36.95 15.0716 37.19 14.5916 37.67C14.1116 38.15 13.8716 38.77 13.8716 39.51C13.8716 40.29 14.1116 40.92 14.5916 41.39C15.0716 41.86 15.6916 42.09 16.4716 42.09C16.8716 42.09 17.2716 42.02 17.6616 41.87C18.0416 41.72 18.3616 41.5 18.6016 41.21H18.6116ZM18.1216 39.16H14.7016C14.7616 38.7 14.9616 38.34 15.2916 38.08C15.6116 37.82 16.0016 37.69 16.4516 37.69C16.9416 37.69 17.3416 37.82 17.6416 38.08C17.9416 38.34 18.1016 38.7 18.1216 39.17V39.16ZM24.471 41.21L23.921 40.71C23.761 40.91 23.531 41.06 23.231 41.17C22.931 41.28 22.641 41.33 22.351 41.33C21.871 41.33 21.461 41.2 21.131 40.93C20.791 40.66 20.601 40.3 20.561 39.85H24.761C24.851 38.91 24.661 38.2 24.191 37.7C23.721 37.2 23.091 36.95 22.291 36.95C21.541 36.95 20.931 37.19 20.451 37.67C19.971 38.15 19.731 38.77 19.731 39.51C19.731 40.29 19.971 40.92 20.451 41.39C20.931 41.86 21.551 42.09 22.331 42.09C22.731 42.09 23.131 42.02 23.521 41.87C23.901 41.72 24.221 41.5 24.461 41.21H24.471ZM23.981 39.16H20.561C20.621 38.7 20.821 38.34 21.151 38.08C21.471 37.82 21.861 37.69 22.311 37.69C22.801 37.69 23.201 37.82 23.501 38.08C23.801 38.34 23.961 38.7 23.981 39.17V39.16ZM30.7504 35H29.9404V37.96C29.7704 37.64 29.5104 37.4 29.1704 37.23C28.8204 37.06 28.4604 36.97 28.0904 36.97C27.3604 36.97 26.7604 37.2 26.3004 37.65C25.8304 38.1 25.6004 38.73 25.6004 39.53C25.6004 40.33 25.8304 40.95 26.3004 41.41C26.7704 41.87 27.3704 42.09 28.1004 42.09C28.4804 42.09 28.8304 42.01 29.1604 41.84C29.4904 41.67 29.7504 41.42 29.9504 41.09L29.9904 41.99H30.7604V34.99L30.7504 35ZM28.1504 37.73C28.6504 37.73 29.0604 37.9 29.4004 38.23C29.7404 38.57 29.9104 38.99 29.9104 39.51C29.9104 40.05 29.7404 40.48 29.4104 40.81C29.0704 41.15 28.6604 41.31 28.1604 41.31C27.6604 41.31 27.2404 41.15 26.9104 40.83C26.5804 40.51 26.4204 40.08 26.4204 39.52C26.4204 38.96 26.5804 38.53 26.9104 38.21C27.2404 37.89 27.6604 37.73 28.1604 37.73H28.1504Z" fill="white"/>
<path d="M18.31 5.21513L16 2.3335" stroke="white" stroke-width="1.5" stroke-linecap="round" stroke-linejoin="round"/>
<path d="M24.2718 9.10003C25.5668 10.8267 26.3718 12.9617 26.3718 15.295C26.3718 21.0234 21.7284 25.6667 16.0001 25.6667C10.2718 25.6667 5.62842 21.0234 5.62842 15.295C5.62842 9.56669 10.2718 4.92334 16.0001 4.92334C16.7934 4.92334 17.5634 5.0284 18.3101 5.2034" stroke="white" stroke-width="1.5" stroke-linecap="round" stroke-linejoin="round"/>
<path d="M11.7688 18H15.3588V17.07H14.1388V11L11.8288 11.73V12.71L13.0288 12.37V17.07H11.7688V18ZM18.1745 14.83L17.0745 13.07H15.8345V13.1L17.4945 15.49L15.7245 17.97V18H16.9645L18.1745 16.21L19.3845 18H20.6245V17.97L18.8545 15.49L20.5145 13.1V13.07H19.2645L18.1745 14.83Z" fill="white"/>
</svg>
