<svg width="19" height="14" viewBox="0 0 19 14" fill="none" xmlns="http://www.w3.org/2000/svg">
<path fill-rule="evenodd" clip-rule="evenodd" d="M8.12372 4.14247C7.58602 3.81154 7.14698 3.54133 6.78498 3.36337C6.42122 3.18455 6.04245 3.04968 5.64381 3.09434C5.06763 3.15889 4.55609 3.47973 4.22903 3.95958C4.00706 4.28523 3.92937 4.6805 3.8932 5.10083C3.85713 5.5199 3.85714 6.05702 3.85714 6.72229V6.77771C3.85714 7.44298 3.85713 7.9801 3.8932 8.39917C3.92937 8.8195 4.00706 9.21477 4.22903 9.54042C4.55609 10.0203 5.06763 10.3411 5.64381 10.4057C6.04245 10.4503 6.42122 10.3154 6.78498 10.1366C7.14698 9.95867 7.58603 9.68845 8.12374 9.35752L8.17463 9.3262C8.71287 8.99496 9.15177 8.72486 9.47689 8.48001C9.80696 8.23143 10.0931 7.95688 10.2467 7.5891C10.4701 7.05423 10.4701 6.44577 10.2467 5.9109C10.0931 5.54312 9.80696 5.26858 9.47689 5.01999C9.15178 4.77515 8.71287 4.50504 8.17464 4.1738L8.12372 4.14247ZM5.77264 4.24429C5.8332 4.2375 5.96383 4.24911 6.27448 4.40182C6.58112 4.55257 6.97325 4.79316 7.543 5.1438C8.11248 5.49427 8.50437 5.73617 8.78076 5.94432C9.05725 6.15255 9.1448 6.27502 9.17898 6.35687C9.2832 6.60637 9.2832 6.89363 9.17898 7.14313C9.1448 7.22498 9.05725 7.34745 8.78076 7.55568C8.50437 7.76383 8.11248 8.00573 7.543 8.3562C6.97325 8.70684 6.58112 8.94744 6.27448 9.09818C5.96383 9.25089 5.8332 9.2625 5.77264 9.25571C5.54776 9.23052 5.33158 9.10349 5.18519 8.88871C5.13576 8.81619 5.07775 8.66796 5.04608 8.29995C5.0148 7.93649 5.01429 7.4495 5.01429 6.75C5.01429 6.0505 5.0148 5.56351 5.04608 5.20005C5.07775 4.83204 5.13576 4.68381 5.18519 4.61129C5.33158 4.39651 5.54776 4.26948 5.77264 4.24429Z" fill="#2D264B"/>
<path fill-rule="evenodd" clip-rule="evenodd" d="M9.33048 0.0544721C8.66369 -6.28786e-06 7.83407 -3.48358e-06 6.77589 5.69402e-08H6.72411C5.66593 -3.48358e-06 4.83631 -6.28786e-06 4.16952 0.0544721C3.49056 0.109946 2.92964 0.224778 2.42194 0.483464C1.58731 0.908731 0.908731 1.58731 0.483464 2.42194C0.224778 2.92964 0.109946 3.49056 0.0544721 4.16952C-6.28786e-06 4.83631 -3.48358e-06 5.66593 5.69402e-08 6.72411V6.77589C-3.48358e-06 7.83407 -6.28786e-06 8.66369 0.0544721 9.33048C0.109946 10.0094 0.224778 10.5704 0.483464 11.0781C0.908731 11.9127 1.58731 12.5913 2.42194 13.0165C2.92964 13.2752 3.49056 13.3901 4.16952 13.4455C4.83629 13.5 5.6659 13.5 6.72406 13.5H6.7759C7.83406 13.5 8.66371 13.5 9.33048 13.4455C10.0094 13.3901 10.5704 13.2752 11.0781 13.0165C11.9127 12.5913 12.5913 11.9127 13.0165 11.0781C13.0551 11.0023 13.0905 10.9254 13.123 10.847C14.023 11.2402 14.7601 11.5594 15.3583 11.7217C15.9947 11.8943 16.6146 11.9299 17.1687 11.5673C17.7228 11.2047 17.9385 10.6224 18.0351 9.9702C18.1286 9.33864 18.1286 8.50557 18.1286 7.48299V6.01701C18.1286 4.99443 18.1286 4.16136 18.0351 3.5298C17.9385 2.87757 17.7228 2.29531 17.1687 1.93272C16.6146 1.57012 15.9947 1.60569 15.3583 1.77831C14.7601 1.94062 14.023 2.2598 13.123 2.65301C13.0905 2.57463 13.0551 2.49769 13.0165 2.42194C12.5913 1.58731 11.9127 0.908731 11.0781 0.483464C10.5704 0.224778 10.0094 0.109946 9.33048 0.0544721ZM13.4604 9.73162L13.4063 9.70797C13.5001 8.9719 13.5 8.04869 13.5 6.83166V6.66835C13.5 5.45139 13.5001 4.5281 13.4063 3.79203L13.4604 3.76838C14.453 3.33466 15.1377 3.03713 15.6613 2.89509C16.1745 2.75587 16.3912 2.8068 16.5351 2.90099C16.6791 2.99518 16.8125 3.17333 16.8904 3.69935C16.9699 4.23601 16.9714 4.98257 16.9714 6.06577V7.43423C16.9714 8.51743 16.9699 9.26399 16.8904 9.80065C16.8125 10.3267 16.6791 10.5048 16.5351 10.599C16.3912 10.6932 16.1745 10.7441 15.6613 10.6049C15.1377 10.4629 14.453 10.1653 13.4604 9.73162ZM2.94727 1.51449C3.26466 1.35277 3.65634 1.2574 4.26375 1.20777C4.87791 1.15759 5.66035 1.15714 6.75 1.15714C7.83965 1.15714 8.62209 1.15759 9.23625 1.20777C9.84366 1.2574 10.2353 1.35277 10.5527 1.51449C11.1696 1.82881 11.6712 2.33037 11.9855 2.94727C12.0748 3.12259 12.1437 3.32025 12.1958 3.56283C12.3396 4.23271 12.3429 5.155 12.3429 6.75C12.3429 8.34454 12.3396 9.26677 12.1959 9.93664C12.1438 10.1795 12.0749 10.3773 11.9855 10.5527C11.6712 11.1696 11.1696 11.6712 10.5527 11.9855C10.2353 12.1472 9.84366 12.2426 9.23625 12.2922C8.62209 12.3424 7.83965 12.3429 6.75 12.3429C5.66035 12.3429 4.87791 12.3424 4.26375 12.2922C3.65634 12.2426 3.26466 12.1472 2.94727 11.9855C2.33037 11.6712 1.82881 11.1696 1.51449 10.5527C1.35277 10.2353 1.2574 9.84366 1.20777 9.23625C1.15759 8.62209 1.15714 7.83965 1.15714 6.75C1.15714 5.66035 1.15759 4.87791 1.20777 4.26375C1.2574 3.65634 1.35277 3.26466 1.51449 2.94727C1.82881 2.33037 2.33037 1.82881 2.94727 1.51449Z" fill="#2D264B"/>
</svg>
