<svg width="16" height="16" viewBox="0 0 16 16" fill="none" xmlns="http://www.w3.org/2000/svg">
<path d="M6.57362 0.935591C6.89484 0.613133 7.25136 0.345824 7.70696 0.273235C7.80402 0.257771 7.90193 0.25 8.00001 0.25C8.09808 0.25 8.19599 0.257771 8.29305 0.273235C8.74865 0.345824 9.10518 0.613134 9.42639 0.935592C9.73941 1.24982 10.0891 1.69091 10.5129 2.22544L11.6466 3.65525C11.8512 3.91324 11.8079 4.28822 11.5499 4.49277C11.2919 4.69733 10.9169 4.65402 10.7124 4.39603L9.60125 2.99469C9.15754 2.43508 8.85263 2.05195 8.59616 1.79167V11.9744C8.59616 12.3036 8.32925 12.5705 8.00001 12.5705C7.67076 12.5705 7.40385 12.3036 7.40385 11.9744V1.79167C7.14738 2.05195 6.84247 2.43508 6.39876 2.99469L5.28765 4.39603C5.08309 4.65402 4.70812 4.69733 4.45013 4.49277C4.19214 4.28821 4.14883 3.91324 4.35339 3.65525L5.48707 2.22545C5.91087 1.69092 6.26061 1.24981 6.57362 0.935591Z" fill="#2D264B"/>
<path d="M14.8359 6.84709C14.6382 6.58383 14.2645 6.53072 14.0012 6.72846C13.738 6.9262 13.6849 7.29991 13.8826 7.56316C14.3067 8.12771 14.5577 8.82855 14.5577 9.58974V10.3846C14.5577 11.1458 14.5558 11.457 14.5161 11.708C14.2872 13.1535 13.1535 14.2871 11.708 14.5161C11.457 14.5558 11.1458 14.5577 10.3846 14.5577H5.61539C4.85417 14.5577 4.54297 14.5558 4.29205 14.5161C2.84654 14.2871 1.71285 13.1535 1.48391 11.7079C1.44416 11.457 1.44231 11.1458 1.44231 10.3846V9.58974C1.44231 8.82855 1.69336 8.12771 2.11741 7.56316C2.31514 7.29991 2.26203 6.9262 1.99878 6.72846C1.73552 6.53072 1.36181 6.58383 1.16408 6.84709C0.590262 7.61102 0.250007 8.56151 0.250007 9.58974L0.250003 10.4489C0.24995 11.1261 0.249917 11.5386 0.306277 11.8945C0.616028 13.8502 2.14984 15.384 4.10553 15.6937C4.46138 15.7501 4.87391 15.7501 5.55116 15.75H10.4488C11.1261 15.7501 11.5386 15.7501 11.8945 15.6937C13.8502 15.384 15.384 13.8502 15.6937 11.8945C15.7501 11.5386 15.7501 11.1261 15.75 10.4488L15.75 9.58974C15.75 8.56151 15.4097 7.61102 14.8359 6.84709Z" fill="#2D264B"/>
</svg>
