<svg width="28" height="24" viewBox="0 0 28 24" fill="none" xmlns="http://www.w3.org/2000/svg">
<path d="M14.2855 20.4201H6.91215C3.22549 20.4201 2.00049 18.3201 2.00049 16.2101V7.79008C2.00049 4.63008 3.22549 3.58008 6.91215 3.58008H14.2855C17.9722 3.58008 19.1972 4.63008 19.1972 7.79008V16.2101C19.1972 19.3701 17.9605 20.4201 14.2855 20.4201Z" stroke="white" stroke-width="1.5" stroke-linecap="round" stroke-linejoin="round"/>
<path d="M10.5109 11.87C11.1009 11.87 11.5209 11.98 11.7809 12.19C12.0409 12.4 12.1709 12.65 12.1709 12.95C12.1709 13.31 12.0009 13.59 11.6609 13.79C11.3209 13.99 10.9209 14.09 10.4609 14.09C10.2809 14.09 10.0909 14.08 9.91086 14.04C9.73086 14.01 9.54086 13.96 9.36086 13.88C9.18086 13.8 9.03086 13.69 8.92086 13.54C8.80086 13.4 8.75086 13.22 8.75086 13.02H7.62086C7.62086 13.52 7.77086 13.93 8.07086 14.25C8.37086 14.58 8.73086 14.8 9.13086 14.92C9.53086 15.04 9.97086 15.1 10.4509 15.1C10.9609 15.1 11.4309 15.04 11.8509 14.9C12.2709 14.76 12.6209 14.53 12.9109 14.19C13.1909 13.85 13.3409 13.44 13.3409 12.94C13.3409 12.57 13.2309 12.25 13.0209 11.98C12.8009 11.72 12.4909 11.53 12.0909 11.41C12.4109 11.33 12.6809 11.15 12.8809 10.88C13.0809 10.61 13.1809 10.3 13.1809 9.96C13.1709 9.31 12.9009 8.8 12.3809 8.44C11.8609 8.08 11.2209 7.9 10.4809 7.9C10.2109 7.9 9.95086 7.92 9.71086 7.96C9.46086 8 9.21086 8.07 8.97086 8.17C8.73086 8.27 8.52086 8.4 8.34086 8.55C8.16086 8.7 8.01086 8.89 7.90086 9.12C7.79086 9.36 7.74086 9.62 7.74086 9.9H8.85086C8.85086 9.66 8.94086 9.46 9.12086 9.3C9.30086 9.14 9.51086 9.04 9.74086 8.98C9.96086 8.93 10.2109 8.9 10.4709 8.9C11.0109 8.9 11.4209 9.01 11.6809 9.22C11.9409 9.44 12.0709 9.68 12.0709 9.96C12.0609 10.28 11.9009 10.52 11.6009 10.69C11.2909 10.87 10.9009 10.95 10.4409 10.95H9.40086V11.87H10.5109Z" fill="white"/>
<path d="M22.7731 17.1001L19.5298 15.1501V8.84013L22.7731 6.89013C24.3598 5.94013 25.6665 6.52013 25.6665 8.19013V15.8101C25.6665 17.4801 24.3598 18.0601 22.7731 17.1001Z" stroke="white" stroke-width="1.5" stroke-linecap="round" stroke-linejoin="round"/>
</svg>
