<svg width="24" height="24" viewBox="0 0 24 24" fill="none" xmlns="http://www.w3.org/2000/svg">
<path fill-rule="evenodd" clip-rule="evenodd" d="M14.146 7.9265C13.306 7.40953 12.6202 6.98741 12.0546 6.7094C11.4864 6.43004 10.8947 6.21934 10.2719 6.28912C9.37179 6.38996 8.57266 6.89117 8.06173 7.64079C7.71498 8.14953 7.59361 8.76702 7.5371 9.42365C7.48075 10.0783 7.48076 10.9174 7.48077 11.9567V12.0433C7.48076 13.0826 7.48075 13.9217 7.5371 14.5763C7.59361 15.233 7.71498 15.8505 8.06173 16.3592C8.57266 17.1088 9.37179 17.61 10.2719 17.7109C10.8947 17.7807 11.4864 17.57 12.0546 17.2906C12.6202 17.0126 13.306 16.5905 14.1461 16.0735L14.2256 16.0246C15.0664 15.5071 15.7521 15.0851 16.26 14.7026C16.7756 14.3143 17.2226 13.8854 17.4626 13.3109C17.8116 12.4753 17.8116 11.5247 17.4626 10.6891C17.2226 10.1146 16.7756 9.68571 16.26 9.29738C15.7521 8.91488 15.0664 8.49293 14.2256 7.97549L14.146 7.9265ZM10.4732 8.08557C10.5678 8.07497 10.7718 8.0931 11.2571 8.33167C11.7362 8.56716 12.3488 8.94301 13.2388 9.49078C14.1285 10.0383 14.7407 10.4162 15.1725 10.7414C15.6044 11.0667 15.7412 11.258 15.7946 11.3859C15.9574 11.7756 15.9574 12.2244 15.7946 12.6141C15.7412 12.742 15.6044 12.9333 15.1725 13.2586C14.7407 13.5838 14.1285 13.9617 13.2388 14.5092C12.3488 15.057 11.7362 15.4328 11.2571 15.6683C10.7718 15.9069 10.5678 15.925 10.4732 15.9144C10.1219 15.8751 9.78415 15.6766 9.55546 15.3411C9.47823 15.2278 9.38761 14.9962 9.33813 14.4213C9.28926 13.8535 9.28846 13.0928 9.28846 12C9.28846 10.9072 9.28926 10.1465 9.33813 9.57866C9.38761 9.00375 9.47823 8.77219 9.55546 8.65889C9.78415 8.32337 10.1219 8.12493 10.4732 8.08557Z" fill="white"/>
<path fill-rule="evenodd" clip-rule="evenodd" d="M17.3791 0.399108C16.0027 0.249982 14.2678 0.24999 12.0545 0.25H11.9455C9.73221 0.24999 7.9973 0.249982 6.62088 0.399108C5.21626 0.55129 4.07816 0.867416 3.10644 1.57341C2.51816 2.00082 2.00082 2.51816 1.57341 3.10644C0.867416 4.07816 0.55129 5.21626 0.399108 6.62088C0.249982 7.9973 0.24999 9.73221 0.25 11.9455V12.0545C0.24999 14.2678 0.249982 16.0027 0.399108 17.3791C0.55129 18.7837 0.867416 19.9218 1.57341 20.8936C2.00082 21.4818 2.51816 21.9992 3.10644 22.4266C4.07816 23.1326 5.21626 23.4487 6.62088 23.6009C7.99728 23.75 9.73215 23.75 11.9454 23.75H12.0546C14.2678 23.75 16.0027 23.75 17.3791 23.6009C18.7837 23.4487 19.9218 23.1326 20.8936 22.4266C21.4818 21.9992 21.9992 21.4818 22.4266 20.8936C23.1326 19.9218 23.4487 18.7837 23.6009 17.3791C23.75 16.0027 23.75 14.2679 23.75 12.0546V11.9454C23.75 9.73224 23.75 7.99728 23.6009 6.62088C23.4487 5.21626 23.1326 4.07816 22.4266 3.10644C21.9992 2.51816 21.4818 2.00082 20.8936 1.57341C19.9218 0.867416 18.7837 0.55129 17.3791 0.399108ZM4.16897 3.03587C4.78118 2.59107 5.56478 2.3318 6.81559 2.19628C8.08332 2.05893 9.72041 2.05769 12 2.05769C14.2796 2.05769 15.9167 2.05893 17.1844 2.19628C18.4352 2.3318 19.2188 2.59107 19.831 3.03587C20.2658 3.35178 20.6482 3.73416 20.9641 4.16897C21.4089 4.78118 21.6682 5.56478 21.8037 6.81559C21.9411 8.08332 21.9423 9.72041 21.9423 12C21.9423 14.2796 21.9411 15.9167 21.8037 17.1844C21.6682 18.4352 21.4089 19.2188 20.9641 19.831C20.6482 20.2658 20.2658 20.6482 19.831 20.9641C19.2188 21.4089 18.4352 21.6682 17.1844 21.8037C15.9167 21.9411 14.2796 21.9423 12 21.9423C9.72041 21.9423 8.08332 21.9411 6.81559 21.8037C5.56478 21.6682 4.78118 21.4089 4.16897 20.9641C3.73416 20.6482 3.35178 20.2658 3.03587 19.831C2.59107 19.2188 2.3318 18.4352 2.19628 17.1844C2.05893 15.9167 2.05769 14.2796 2.05769 12C2.05769 9.72041 2.05893 8.08332 2.19628 6.81559C2.3318 5.56478 2.59107 4.78118 3.03587 4.16897C3.35178 3.73416 3.73416 3.35178 4.16897 3.03587Z" fill="white"/>
</svg>
