<svg width="14" height="12" viewBox="0 0 14 12" fill="none" xmlns="http://www.w3.org/2000/svg">
<path fill-rule="evenodd" clip-rule="evenodd" d="M7 3.36115C5.60776 3.36115 4.47914 4.48978 4.47914 5.88202C4.47914 7.27425 5.60776 8.40288 7 8.40288C8.39224 8.40288 9.52087 7.27425 9.52087 5.88202C9.52087 4.48978 8.39224 3.36115 7 3.36115ZM5.48748 5.88202C5.48748 5.04668 6.16466 4.3695 7 4.3695C7.83534 4.3695 8.51252 5.04668 8.51252 5.88202C8.51252 6.71736 7.83534 7.39454 7 7.39454C6.16466 7.39454 5.48748 6.71736 5.48748 5.88202Z" fill="white"/>
<path fill-rule="evenodd" clip-rule="evenodd" d="M7 0C5.56078 0 4.25948 0.711887 3.20306 1.57686C2.14087 2.44656 1.27233 3.51486 0.688702 4.32783L0.640568 4.39477C0.289219 4.88297 0 5.28485 0 5.88202C0 6.47919 0.289219 6.88106 0.640568 7.36927L0.688702 7.43621C1.27233 8.24918 2.14087 9.31748 3.20306 10.1872C4.25948 11.0522 5.56078 11.764 7 11.764C8.43922 11.764 9.74052 11.0522 10.7969 10.1872C11.8591 9.31748 12.7277 8.24918 13.3113 7.43621L13.3594 7.36927C13.7108 6.88107 14 6.47919 14 5.88202C14 5.28485 13.7108 4.88297 13.3594 4.39477L13.3113 4.32783C12.7277 3.51486 11.8591 2.44656 10.7969 1.57686C9.74052 0.711887 8.43922 0 7 0ZM1.50782 4.91588C2.06528 4.13936 2.87484 3.14882 3.84186 2.35705C4.81464 1.56056 5.89366 1.00835 7 1.00835C8.10634 1.00835 9.18536 1.56056 10.1581 2.35705C11.1252 3.14882 11.9347 4.13936 12.4922 4.91588C12.9116 5.50015 12.9917 5.64101 12.9917 5.88202C12.9917 6.12303 12.9116 6.26389 12.4922 6.84816C11.9347 7.62467 11.1252 8.61522 10.1581 9.40699C9.18536 10.2035 8.10634 10.7557 7 10.7557C5.89366 10.7557 4.81464 10.2035 3.84186 9.40699C2.87484 8.61522 2.06528 7.62467 1.50782 6.84816C1.08838 6.26389 1.00835 6.12303 1.00835 5.88202C1.00835 5.64101 1.08838 5.50015 1.50782 4.91588Z" fill="white"/>
</svg>
