<svg width="32" height="32" viewBox="0 0 32 32" fill="none" xmlns="http://www.w3.org/2000/svg">
<path fill-rule="evenodd" clip-rule="evenodd" d="M16 32C24.8366 32 32 24.8366 32 16C32 7.16344 24.8366 0 16 0C7.16344 0 0 7.16344 0 16C0 24.8366 7.16344 32 16 32ZM24.894 12.0004C25.3361 11.5067 25.2942 10.748 24.8004 10.306C24.3067 9.86389 23.548 9.9058 23.106 10.3996L17.7153 16.4207C16.623 17.6407 15.8874 18.458 15.2584 18.9867C14.6593 19.4902 14.3074 19.6 14 19.6C13.6926 19.6 13.3407 19.4902 12.7416 18.9867C12.1126 18.458 11.377 17.6407 10.2847 16.4206L8.89404 14.8673C8.45197 14.3736 7.69333 14.3317 7.19957 14.7737C6.7058 15.2158 6.66389 15.9744 7.10596 16.4682L8.55605 18.0879C9.57341 19.2243 10.422 20.1722 11.1974 20.8239C12.0176 21.5133 12.9023 22 14 22C15.0977 22 15.9824 21.5133 16.8026 20.8239C17.578 20.1722 18.4266 19.2243 19.4439 18.0879L24.894 12.0004Z" fill="#0072F7"/>
</svg>
